<?xml version="1.0" standalone="no"?>
<!DOCTYPE svg PUBLIC "-//W3C//DTD SVG 1.1//EN" "http://www.w3.org/Graphics/SVG/1.1/DTD/svg11.dtd" >
<svg xmlns="http://www.w3.org/2000/svg" xmlns:xlink="http://www.w3.org/1999/xlink" version="1.1">
<metadata></metadata>
<defs>
<font id="mellowregular" horiz-adv-x="1085" >
<font-face units-per-em="2048" ascent="1638" descent="-410" />
<missing-glyph horiz-adv-x="614" />
<glyph horiz-adv-x="0" />
<glyph horiz-adv-x="682" />
<glyph unicode=" "  horiz-adv-x="614" />
<glyph unicode="&#x09;" horiz-adv-x="614" />
<glyph unicode="&#xa0;" horiz-adv-x="614" />
<glyph unicode="!" horiz-adv-x="606" d="M156 63q0 16 9.5 32.5t27.5 23.5q5 2 12.5 4.5t27 7t27.5 -1.5q21 -8 29 -35q13 -47 -17 -74q-11 -15 -31.5 -21t-35.5 1q-49 17 -49 63zM242 338q27 102 73.5 284.5t61.5 241.5q4 14 31 112t43 150l67 220q8 23 44.5 16.5t41.5 -31.5q1 -33 2 -51.5t-6 -53t-11.5 -52.5 t-14 -51.5t-13.5 -49.5l-67 -262q-79 -288 -146 -504q-8 -33 -38 -39t-53 15.5t-15 54.5z" />
<glyph unicode="&#x22;" horiz-adv-x="786" d="M459 1364q-4 15 0 27l1 4q1 4 1.5 7t4.5 8t9.5 9t16 8t24.5 7q23 5 45.5 -10t26.5 -40q7 -15 5 -41t-7.5 -51.5t-26 -49.5t-51.5 -36q-23 -9 -34.5 17.5t11.5 38.5q35 18 43 49q-30 -7 -51 18q-17 28 -18 35zM653 1364q-4 15 0 27l1 4q1 4 2 7t5 8t9.5 9t16 8t24.5 7 q23 5 45 -10t26 -40q7 -15 5 -41t-7.5 -51.5t-26 -49.5t-51.5 -36q-23 -9 -34 17.5t12 38.5q35 18 43 49q-30 -7 -51 18q-18 30 -19 35z" />
<glyph unicode="#" horiz-adv-x="905" d="M290 417q2 13 11.5 23t24.5 9q65 0 96 2q19 59 22 71q-10 0 -29 -0.5t-33.5 -0.5t-27.5 1q-20 1 -29.5 15.5t-4 31t23.5 23.5q50 21 125 31q15 67 33 135q6 28 38.5 29t37.5 -29l4 -21q3 -13 -4 -26q0 -19 -9 -80h47h56q19 85 45 129q10 20 36.5 17t30.5 -27 q8 -53 -2 -125q44 -3 88 -15q25 -7 32.5 -32t-6 -46.5t-40.5 -19.5q-30 0 -92 8q0 -3 -1 -9t-1 -9q-1 -8 -4 -24.5t-4 -24.5q53 -7 88 -17q24 -6 31 -29.5t-6 -44t-38 -18.5l-92 12q-11 -62 -20 -98q-7 -35 -37 -41t-55 16t-19 56q5 32 15 78q-20 2 -60 2h-45 q-8 -32 -33 -93q-14 -28 -39.5 -28.5t-44 20t-14.5 47.5l12 54q-52 4 -82 8q-14 3 -20.5 15t-4.5 25zM539 461h45h53q7 27 14 67q-18 2 -57 2h-41q-2 -12 -6 -32q-4 -11 -8 -37z" />
<glyph unicode="$" horiz-adv-x="923" d="M8 361.5q21 93.5 88 160.5q42 40 97.5 63.5t114 12.5t87.5 -70q19 -35 -11 -56q-26 -19 -53 -2q-13 10 -20 26q-8 19 -31.5 20t-44.5 -7.5t-38 -19.5q-47 -29 -70 -71q-51 -80 -23 -170q22 -71 75 -114.5t118.5 -51.5t138.5 8q102 29 152 119.5t24 193.5 q-20 79 -84 214.5t-84 199.5q-79 253 2 410q44 81 117.5 134.5t157.5 47.5h20q42 82 80 160q8 15 22 20.5t27 1t24 -13.5t13 -23.5t-6 -29.5q-16 -24 -43.5 -70t-42.5 -70q54 -26 84.5 -75.5t24.5 -110.5q-6 -82 -55.5 -146.5t-127.5 -101.5q-31 -15 -48 14.5t12 49.5 q125 80 141 164q9 62 -27 104t-98 39q-76 -3 -127.5 -54.5t-69 -121t-8.5 -141.5q9 -73 41.5 -151.5t75 -163.5t61.5 -144q24 -66 34 -132.5t0.5 -140t-46.5 -125.5q-69 -96 -188.5 -135t-235.5 -12q-24 -59 -57 -156q-12 -31 -40 -33t-45.5 20.5t-2.5 51.5q4 6 71 144 q-105 44 -161 155q-36 86 -15 179.5z" />
<glyph unicode="%" horiz-adv-x="921" d="M1 -36q-2 18 7 36q47 85 159.5 287t174.5 313t156 278t177.5 311.5t166.5 283.5q16 21 37 20.5t34.5 -21t1.5 -42.5q-91 -176 -205.5 -387.5t-188.5 -345.5t-220.5 -397t-198.5 -357q-10 -17 -26.5 -23.5t-31.5 -1t-28 16.5t-15 29zM199 1044q-2 52 28.5 97t79.5 51 q2 10 10 17.5t21 7.5q64 -2 112 -47t44 -109q-5 -61 -44.5 -106.5t-97.5 -45.5q-62 0 -106 37.5t-47 97.5zM264 1057q2 -35 27.5 -60.5t60.5 -21.5q31 2 50 20t21 42.5t-5.5 48.5t-29 41.5t-50.5 19.5l-4 -4q-24 -13 -35.5 -20.5t-24 -25.5t-10.5 -40zM453 334 q-2 52 28.5 96.5t79.5 50.5q2 10 10 17.5t21 7.5q64 -2 112 -47t44 -109q-5 -61 -44.5 -106t-97.5 -45q-62 0 -106 37.5t-47 97.5zM518 346q2 -35 27.5 -60.5t60.5 -21.5q31 2 50 20t21 42.5t-5.5 48.5t-29 41.5t-50.5 19.5l-4 -4q-24 -13 -35.5 -20.5t-24 -25.5t-10.5 -40z " />
<glyph unicode="&#x26;" horiz-adv-x="665" d="M2 113q-6 55 4.5 110.5t40.5 116t52.5 97.5t64.5 100q7 11 47 69q-37 124 -51 236q-45 317 59 506q56 99 150 120.5t176 -59.5q39 -40 55.5 -99t11 -123.5t-19.5 -121.5t-35 -111q-28 -64 -69.5 -136.5t-69.5 -115.5t-86 -127q23 -85 63 -194q51 -147 105 -238 q21 14 56.5 40.5t47.5 35.5q16 14 35 4t22.5 -29t-10.5 -34q-10 -10 -29 -28t-34.5 -32.5t-30.5 -27.5q40 -46 90 -82q19 -16 19 -35t-19 -31.5t-41 -3.5q-68 29 -125 86q-119 -92 -215 -104q-101 -13 -175.5 47.5t-88.5 163.5zM103 131.5q4 -54.5 42 -92.5q90 -92 252 27 q6 2 14 8t11 8q-56 82 -107 209q-48 137 -63 174q-42 -59 -69 -104t-55.5 -110t-24.5 -119.5zM262 903q9 -85 31 -178q78 113 125 215q57 116 74 238q0 17 2 45t-4 58.5t-15.5 55.5t-31 37.5t-50.5 3.5q-32 -9 -55.5 -31t-37 -55t-20 -60.5t-12.5 -64.5q-21 -129 -6 -264z " />
<glyph unicode="'" horiz-adv-x="284" d="M459 1343q-4 15 0 27l1 4q1 4 1.5 7t4.5 8t9.5 9t16 8t24.5 7q23 5 45.5 -9.5t26.5 -39.5q7 -15 5 -41t-7.5 -51.5t-26 -49.5t-51.5 -36q-23 -9 -34.5 17t11.5 38q35 18 43 49q-29 -6 -51 19q-17 28 -18 34z" />
<glyph unicode="(" horiz-adv-x="790" d="M193 471q8 175 28 254q61 244 189 460t313 386q28 26 54.5 -0.5t0.5 -54.5q-159 -174 -266.5 -386t-153.5 -442q-4 -21 -13.5 -63.5t-15 -68t-11 -62t-7.5 -68.5q-6 -131 2 -246q24 -336 127 -512q20 -36 -12 -62q-28 -23 -56 -8q-18 8 -24 31q-12 37 -47 129t-49 144 q-38 142 -53 278q-15 145 -6 291z" />
<glyph unicode=")" horiz-adv-x="626" d="M87 -377q-7 24 11 49q168 191 270 415.5t119 465.5q22 308 -16 496q-47 225 -176 467q-13 23 0.5 43.5t36 20.5t39.5 -21q148 -223 214 -503.5t27 -539.5q-40 -257 -154 -493.5t-292 -419.5q-20 -21 -46 -12.5t-33 32.5z" />
<glyph unicode="*" horiz-adv-x="512" d="M266.5 1214.5q-4.5 14.5 7.5 18.5q29 15 76 22q-29 29 -45 41q-9 8 -5 18t14 13.5t20 -2.5l41 -35q0 3 -1 9.5t-1 9.5q-5 19 13 24t24 -14l8 -33q30 25 45 35q19 10 32.5 -7.5t-1.5 -31.5q-11 -11 -31 -27q5 -1 13.5 -2t12.5 -2q15 -3 18 -15.5t-6 -23t-24 -8.5 q-3 1 -9 2t-9 2q36 -47 49 -69q12 -23 -9 -35t-36 8q-6 9 -39 53q-1 -4 -2 -13t-2 -13q-2 -12 -14 -15.5t-22.5 2.5t-8.5 19l4 35q-14 -15 -39 -44.5t-39 -43.5q-10 -10 -22.5 -1t-6.5 21q24 47 70 96l-59 -6q-12 -2 -16.5 12.5z" />
<glyph unicode="+" horiz-adv-x="641" d="M5 481.5q-10 19.5 0 38t34 19.5q89 12 227 12q0 150 10 207q1 18 18.5 25t36 0t21.5 -25q4 -24 5.5 -52.5t1.5 -47.5t-0.5 -53.5t-0.5 -49.5q38 -2 234 -6q30 0 42 -24.5t0 -49t-42 -24.5q-45 0 -116.5 -2.5t-117.5 -2.5v-204q2 -29 -21 -41t-47 0t-24 41v204 q-67 0 -227 13q-24 3 -34 22.5z" />
<glyph unicode="," horiz-adv-x="294" d="M162 53q-4 15 0 27l1 4q1 4 1.5 7t4.5 8t9.5 9t16 8t24.5 7q23 5 45.5 -9.5t26.5 -39.5q7 -15 5 -41t-7.5 -51.5t-26 -49.5t-51.5 -36q-23 -9 -34.5 17t11.5 38q35 18 43 49q-30 -7 -51 18q-17 28 -18 35z" />
<glyph unicode="-" d="M276 515q-16 31 0 62.5t56 32.5q295 8 663 8q43 0 61 -33t0 -65.5t-61 -32.5q-65 0 -332.5 -4.5t-330.5 0.5q-40 1 -56 32z" />
<glyph unicode="." horiz-adv-x="292" d="M156 63q0 16 9.5 32.5t27.5 23.5q5 2 12.5 4.5t27 7t27.5 -1.5q21 -8 29 -35q13 -47 -17 -74q-11 -15 -31.5 -21t-35.5 1q-49 17 -49 63z" />
<glyph unicode="/" horiz-adv-x="647" d="M154 4q49 116 148 356.5t159 385t148 348t165 372.5q13 21 38 19t46 -24t12 -42q-85 -224 -181.5 -460.5t-230.5 -558t-190 -457.5q-17 -26 -47.5 -24.5t-55 28.5t-11.5 57z" />
<glyph unicode="0" horiz-adv-x="800" d="M0 401q3 122 26.5 246t63.5 242q29 89 72.5 169t94.5 141.5t106.5 106.5t113 63.5t110.5 12.5t100.5 -47t82.5 -114q37 -83 29 -254q-6 -129 -37 -260q-75 -301 -227 -508q-203 -282 -394 -166q-73 48 -108.5 147t-32.5 221zM142.5 265q6.5 -71 37.5 -113 q28 -35 66 -38.5t71.5 15t59.5 49.5q142 166 227 408q93 278 88 467q-5 164 -98 190q-54 17 -108 5.5t-97 -48.5q-33 -29 -54 -52t-35.5 -53.5t-20 -47t-18 -63.5t-19.5 -73q-89 -300 -99 -524q-7 -51 -0.5 -122z" />
<glyph unicode="1" horiz-adv-x="540" d="M-1.5 929.5q-0.5 23.5 19.5 41.5q220 160 428 397q20 17 44 15t41 -23.5t8 -46.5q-88 -227 -189 -625q-101 -402 -133 -639q-3 -22 -18.5 -34.5t-35.5 -13.5t-39 5t-31 22.5t-9 37.5q55 426 121 661q43 155 123 371q-127 -114 -265 -203q-23 -16 -43.5 -2.5t-21 37z" />
<glyph unicode="2" horiz-adv-x="796" d="M1.5 63.5q-6.5 20.5 6.5 42.5q106 181 244 396q16 26 57.5 90.5t63 100t51.5 89.5t51 101q60 134 74 201q27 128 -45 169q-38 24 -86 14t-76 -48q-52 -79 -27 -172q5 -26 -14 -41t-41.5 -9.5t-28.5 29.5q-16 55 -8 111t31 102.5t68 80t104 42.5q76 10 132.5 -30.5 t80 -106.5t14.5 -138q-16 -127 -69.5 -253t-137.5 -267q-112 -188 -251 -399q52 -2 147 -33q249 -92 363 64q18 23 46 19t39 -25.5t-4 -47.5q-53 -71 -132 -111.5t-162 -33.5q-34 3 -96 23t-109 35t-100.5 11t-86.5 -40q-17 -18 -39.5 -17t-37.5 16t-21.5 35.5z" />
<glyph unicode="3" horiz-adv-x="598" d="M6 94q-20 31 11.5 56.5t56.5 -3.5q41 -51 106.5 -46t106.5 57q71 90 139 241q78 163 39 275q-24 62 -72 96t-106 14q-30 -10 -54.5 9.5t-27.5 47.5t16 52q11 10 33.5 30.5t38 35.5t35.5 36.5t31.5 40.5t21 42t9 47t-10.5 49q-18 42 -67 52.5t-87 -16.5q-36 -25 -46.5 -60 t-12.5 -91q-2 -28 -30 -37.5t-40 16.5q-23 56 -15 109.5t46.5 94.5t86 64.5t105 20t103.5 -38.5q54 -40 73.5 -113.5t-1.5 -136.5q-23 -74 -91 -153q114 -49 158 -150q85 -188 -16 -405q-107 -235 -266 -310q-73 -35 -153 -15t-120 89z" />
<glyph unicode="4" horiz-adv-x="755" d="M2 461q-8 38 23 69q0 2 2 2q9 10 63.5 73.5t72.5 85t58.5 70.5t69 88t55.5 79q133 195 238 422q14 30 45 30.5t53 -23.5t12 -54q-111 -371 -178 -754q126 4 201 -31q33 -14 39.5 -48t-15 -57t-55.5 -10q-81 31 -190 27q-33 -205 -52 -369q-4 -38 -37.5 -54t-64 -0.5 t-27.5 54.5q14 141 47 349q-16 -3 -50 -10.5t-54 -12t-50 -9t-56 -5.5q-56 -5 -96.5 16t-53.5 72zM98 473q20 -9 80 6q10 4 88 25q66 20 119 28q17 110 68 330q-167 -237 -355 -389z" />
<glyph unicode="5" horiz-adv-x="794" d="M2 143q-8 29 12.5 47t47 12.5t34.5 -34.5q10 -36 40 -55t66 -18t68 18q29 16 79 62.5t65 68.5q8 10 42.5 48.5t47.5 53.5t41 50t42 58t30.5 55.5t25.5 63.5q14 47 17 94t-5.5 92.5t-37 82.5t-74.5 57q-148 66 -361 -51q-39 -23 -68 7.5t-10 68.5q91 190 19 391 q-9 25 6.5 45t39.5 21.5t44 -13.5q55 -51 186 -20q135 32 201 26q85 -8 139 -73t23 -144q-14 -34 -47.5 -24.5t-26.5 47.5q10 50 -34 76t-95 22q-32 -4 -89.5 -20.5t-82.5 -20.5q-67 -15 -131 -6q18 -113 -6 -223q241 92 393 -13q79 -55 117 -140.5t35.5 -176t-37.5 -182.5 q-52 -128 -156 -249.5t-225 -197.5q-49 -29 -105.5 -41.5t-110.5 -6t-97.5 43t-61.5 98.5z" />
<glyph unicode="6" horiz-adv-x="735" d="M0 373q0 251 88 463q32 80 73 153t98.5 143.5t122 122.5t146.5 83.5t170 31.5q20 0 31 -17.5t5.5 -36t-25.5 -22.5q-166 -32 -285 -145t-193 -281q-71 -162 -94 -319q21 19 69.5 69t78 76t79.5 48t101 16q101 -10 169.5 -78t82.5 -170q14 -105 -33.5 -205.5 t-134.5 -171.5q-216 -179 -381 -117q-50 19 -85.5 58.5t-52.5 91t-24 102t-6 105.5zM123 440q-16 -175 29 -262q60 -115 181 -73q96 34 182 141t93 195v14q-2 83 -60 148t-138 38q-46 -16 -88.5 -48t-90 -77.5t-75.5 -66.5q-16 -12 -33 -9z" />
<glyph unicode="7" horiz-adv-x="724" d="M0.5 1223q-3.5 31 15.5 57q57 76 168 41q245 -81 451 39q29 17 57 1.5t32.5 -43.5t-15.5 -54q-50 -53 -94 -112t-81 -127t-66.5 -126.5t-58 -140t-47 -136t-42.5 -146.5t-36 -140t-35.5 -147.5t-33.5 -139.5q-11 -42 -47.5 -49t-66 19.5t-21.5 68.5q29 161 60.5 292.5 t78.5 276.5t113 277.5t149 247.5q-33 -6 -98 -6q-110 8 -168 30q-4 1 -32 13.5t-44 17.5q-39 12 -47 -9.5t19 -51.5q16 -18 8 -40.5t-27 -27.5t-39 10q-21 21 -35 47.5t-17.5 57.5z" />
<glyph unicode="8" horiz-adv-x="811" d="M4 164q-32 145 133 366q103 136 240 230q-25 99 -37 164q-50 262 72 391q38 39 89 62.5t108.5 22t103.5 -33.5q41 -29 64.5 -62.5t31 -66.5t-0.5 -72t-21 -71.5t-42 -74t-52.5 -70t-61.5 -68t-60.5 -61t-58.5 -54.5q30 -112 33 -135q23 -130 26 -236q3 -45 1 -107.5 t-15 -107.5q-30 -94 -108.5 -137t-186.5 -43q-97 0 -168 38.5t-90 125.5zM111 197q3 -36 28.5 -56.5t56 -26t66.5 -3.5q146 8 168 104q15 68 6 229q-8 93 -35 209q-138 -116 -221 -264q-51 -90 -62 -129q-10 -34 -7 -63zM449 1120q-15 -106 32 -256q35 41 109 123 q2 2 23 25.5t27 31t22 29t22 34.5t12 33t6 38q0 59 -44.5 91t-100.5 9q-45 -19 -73.5 -63.5t-34.5 -94.5z" />
<glyph unicode="9" horiz-adv-x="696" d="M2 62.5q7 22.5 31 25.5q44 6 85.5 25t73.5 42t65.5 62.5t55 68.5t49.5 79.5t41.5 77t38.5 77.5q49 100 80 191q-66 -79 -151.5 -124t-171.5 -22q-90 23 -126 101t-20 176q42 217 185 397q29 37 68.5 67.5t86 52t97 20.5t92.5 -29q41 -28 67 -69t35 -85t12 -94t-2 -96 q-13 -237 -92 -437q-85 -211 -227 -372q-78 -87 -157 -139.5t-173 -57.5q-24 -2 -37 19t-6 43.5zM151.5 736q1.5 -26 16.5 -45t41 -27q23 -7 44.5 -8t41.5 5t37 13t36.5 21t32.5 24t34 27t32 26q22 16 43 9t27 -27q63 210 47 372q-8 111 -84 123q-70 12 -133 -51 q-96 -99 -166 -262q-10 -21 -17.5 -40.5t-18 -50.5t-13 -57t-1 -52z" />
<glyph unicode=":" horiz-adv-x="292" d="M156 63q0 16 9.5 32.5t27.5 23.5q5 2 12.5 4.5t27 7t27.5 -1.5q21 -8 29 -35q13 -47 -17 -74q-11 -15 -31.5 -21t-35.5 1q-49 17 -49 63zM156 961q0 40 37 55q5 2 12.5 4.5t27 7t27.5 -1.5q21 -8 29 -35q13 -46 -17 -73q-11 -15 -31.5 -21.5t-35.5 0.5q-49 17 -49 64z " />
<glyph unicode=";" horiz-adv-x="294" d="M156 961q0 40 37 55q5 2 12.5 4.5t27 7t27.5 -1.5q21 -8 29 -35q13 -46 -17 -73q-11 -15 -31.5 -21.5t-35.5 0.5q-49 17 -49 64zM162 53q-4 15 0 27l1 4q1 4 1.5 7t4.5 8t9.5 9t16 8t24.5 7q23 5 45.5 -9.5t26.5 -39.5q7 -15 5 -41t-7.5 -51.5t-26 -49.5t-51.5 -36 q-23 -9 -34.5 17t11.5 38q35 18 43 49q-30 -7 -51 18q-17 28 -18 35z" />
<glyph unicode="=" horiz-adv-x="796" d="M5 392.5q-16 31.5 0 62.5t56 32q332 9 664 9q43 0 61 -32.5t0 -65.5t-61 -33q-70 0 -303.5 -4t-360.5 -1q-40 1 -56 32.5zM5 638.5q-16 31.5 0 62.5t56 32q295 8 664 8q43 0 61 -32.5t0 -65.5t-61 -33q-64 0 -332.5 -4t-331.5 0q-40 1 -56 32.5z" />
<glyph unicode="?" horiz-adv-x="897" d="M217 63q0 16 9.5 32.5t27.5 23.5q5 2 12.5 4.5t27.5 7t28 -1.5q20 -8 28 -35q13 -48 -16 -74q-10 -15 -31.5 -21.5t-36.5 1.5q-49 17 -49 63zM266 238q-6 110 35.5 219t122.5 182q36 33 118.5 89.5t138.5 110.5t81 124q53 134 12 227q-28 59 -87.5 86t-121.5 10 q-118 -38 -168 -137q-17 -37 -21.5 -78.5t-0.5 -70.5t14 -80q8 -32 -19.5 -47.5t-47.5 12.5q-48 77 -44.5 162t50.5 163.5t118 118.5q55 32 121 42.5t128 -0.5t112 -53.5t70 -109.5q23 -91 17.5 -182t-51 -177t-120.5 -134q-17 -11 -71 -45.5t-81 -51.5q-74 -54 -112 -112 q-57 -76 -85 -134.5t-28 -129.5q-1 -24 -20.5 -35.5t-39 -2.5t-20.5 34z" />
<glyph unicode="@" horiz-adv-x="1327" d="M3.5 397q18.5 162 115.5 295q157 213 399 320q294 134 486 100q123 -22 207 -99.5t108 -199.5q44 -237 -125 -496q-30 -47 -73 -86t-93.5 -64.5t-107 -19.5t-103.5 50q-63 60 -78 135q-31 -42 -71 -64q-56 -34 -122.5 -40.5t-127 21.5t-88.5 89q-48 92 -31 182.5 t72 162.5t142 116.5t179 44.5q27 0 38 -21.5t0 -43.5t-38 -23q-67 -1 -128 -35.5t-101 -93.5q-21 -33 -34 -70.5t-16.5 -82t17.5 -77.5q24 -45 67.5 -57t87 5t74.5 54q31 38 51.5 92.5t27.5 87.5t18 103q4 22 26.5 31t45 0t26.5 -31q6 -30 8.5 -66.5t2.5 -60t-0.5 -68.5 t-0.5 -63q0 -147 70 -158q27 -3 52.5 8t43 26.5t37.5 44.5t29 46t24 47q70 137 78 240q4 81 -21.5 154.5t-85.5 125t-143 54.5q-111 3 -229 -33.5t-223 -99.5q-252 -144 -324 -365q-38 -95 -36.5 -211.5t54.5 -208.5q41 -70 98.5 -114.5t118 -62t135 -15t140 17t142 43.5 t133.5 55.5t122 61.5q18 8 35 5t28 -16t16.5 -28t-0.5 -31.5t-23 -25.5q-67 -34 -115 -56.5t-118.5 -51t-126 -44.5t-125.5 -28t-129 -10t-124.5 17.5t-124.5 47.5q-148 80 -217.5 228t-51 310z" />
<glyph unicode="A" horiz-adv-x="1849" d="M18 272q35 98 104.5 173.5t164.5 111.5q90 35 201 34q104 0 227 -30q21 31 58.5 88.5t53.5 81.5q251 400 373 737q10 26 36.5 35t49 -5t21.5 -44v-14q0 -44 5 -118.5t5 -116.5v-13q-6 -132 -6 -262q-2 -178 -2 -318q0 -327 10 -448q5 -67 29 -106q24 -38 62 -45 q17 -3 36 -3q23 0 47 4q45 8 99.5 37.5t102 60t99.5 70.5q26 20 48.5 15t25.5 -26t-15 -48q-45 -59 -213.5 -140.5t-236.5 -84.5h-15q-36 0 -67 12q-37 15 -61.5 45t-42.5 65.5t-28.5 80t-16 82t-7.5 77.5q0 28 -4 82q-6 1 -366 98q-14 5 -35 9q-139 -187 -242 -304 q-9 -10 -28.5 -32t-32.5 -36.5t-34 -36.5t-38 -36.5t-39 -31t-42.5 -25.5t-43.5 -16t-46.5 -6t-47.5 9q-102 35 -144 134q-22 52 -21 106q0 49 17 98zM135 240q-11 -51 -10 -90q0 -71 35 -101q20 -16 42.5 -19t44 5.5t40 21t35.5 29.5q151 142 333 389q-85 19 -156 19 q-59 0 -108 -13q-94 -24 -163.5 -87t-92.5 -154zM821 535q228 -64 340 -99q5 99 10 445q5 177 5 233v16q-152 -304 -353 -593z" />
<glyph unicode="B" horiz-adv-x="976" d="M4 915q-3 26 -3 51q0 79 28 153q37 98 110 171q118 119 293 178q121 41 237 41q51 0 101 -8q108 -17 190.5 -82t118.5 -164q20 -56 21 -114q0 -45 -13 -92q-19 -76 -61 -145.5t-100 -117.5q-7 -5 -21.5 -15.5t-19.5 -14.5q44 -20 86 -68q63 -80 76 -180q3 -27 3 -53 q0 -73 -26 -144q-42 -124 -144 -217q-102 -94 -232 -134q-86 -27 -171 -26q-44 0 -88 7q-27 5 -33.5 28t7 44.5t38.5 23.5q175 11 291 82q91 57 174 200q64 109 64 189q0 50 -25 88q-56 78 -135 92q-50 -19 -133 -22q-27 -2 -42.5 20t-10.5 48t28 36q104 70 107 72 q56 27 98 59q99 72 127 168q15 57 15 103q0 67 -31 112q-32 51 -91.5 79t-123.5 30q-17 1 -34 1q-117 0 -235 -36q-136 -40 -221 -125q-97 -97 -119 -216q-6 -31 -6 -62q0 -88 47 -177q15 -30 -10.5 -50.5t-48.5 3.5q-70 78 -82 184zM80.5 -27.5q-8.5 18.5 3.5 43.5 q94 181 141 306q20 52 51 158t50 157q12 36 34 103.5t41 123t37 103.5q9 23 26.5 74.5t29 82.5t30.5 72.5t39 73.5q12 18 33 21t37 -9.5t14 -34.5q-2 -35 -7.5 -70.5t-17 -79.5t-18.5 -67t-25 -78.5t-22 -68.5q-13 -42 -47 -154.5t-55 -173.5q-35 -96 -129 -301 q-71 -166 -148 -295q-14 -20 -35.5 -24t-37.5 7.5t-24.5 30z" />
<glyph unicode="C" horiz-adv-x="1042" d="M6 351q-5 56 -6 111q0 60 6 120q12 114 43 217q62 215 209 411q182 237 360 287q41 13 88 13h12q53 -2 100 -15.5t86.5 -47.5t58.5 -83q17 -44 19 -92q0 -5 1 -11q-1 -41 -11 -78q-12 -41 -35 -85t-48 -78t-58 -72q-17 -18 -38 -11t-27.5 27.5t6.5 41.5q72 89 94 133 q13 26 19 49q7 34 7 67.5t-15.5 65.5t-45.5 49q-47 27 -98 27q-103 0 -223 -111q-128 -116 -213 -272t-123 -332q-25 -112 -25 -235q0 -55 5 -111q16 -137 94 -225q76 -89 188 -115q51 -12 108 -11q67 1 142 17q138 32 270 121q14 10 29 10q16 0 34 -11q31 -18 22 -43 q-3 -7 -9 -13q-82 -79 -184 -124t-194 -54q-43 -4 -84 -4q-48 0 -98 6q-90 10 -154.5 31.5t-104.5 47.5q-91 60 -144 162.5t-63 219.5z" />
<glyph unicode="D" horiz-adv-x="1159" d="M1.5 -53.5q-5.5 24.5 12 46t45.5 17.5q14 -3 26 -3q23 0 45 10q32 15 60 57t40.5 66.5t34.5 77.5q10 22 14 32q86 210 137 354q90 236 233 709q8 25 29.5 29.5t38.5 -11.5t12 -41q-61 -398 -240 -852q-97 -263 -176 -383q-49 -73 -121 -110q-57 -29 -122 -29q-17 0 -35 2 q-28 4 -33.5 28.5zM122 1042q17 94 70.5 182t133.5 146q81 58 190 94q109 38 222 46q23 2 46 1q88 0 176 -26q110 -33 183 -107q138 -144 155 -383q6 -70 6 -135q0 -185 -44 -340q-40 -141 -112.5 -263.5t-161.5 -204.5t-183 -128q-81 -39 -160 -40q-13 0 -26 2 q-92 8 -162 69q-18 15 -12 38t25.5 32t41.5 -2q71 -42 139 -43q47 0 95 22q114 50 207.5 185t138.5 309q50 201 53 405q0 32 0.5 58.5t-0.5 48.5q-1 42 -12 101t-33 103q-40 80 -116 125t-164 52q-26 2 -52 2q-62 1 -124 -11q-88 -16 -165 -53q-207 -99 -250 -262 q-13 -44 -13 -88q0 -37 10 -75q21 -80 83 -142q16 -15 11 -35.5t-22 -28.5t-36 2q-87 62 -121 156q-23 62 -23 125q0 32 6 63z" />
<glyph unicode="E" horiz-adv-x="911" d="M2 265q-2 24 -2 47q0 66 18 128q26 84 80 164q150 225 295 266q-58 107 -58 217q0 47 11 95q26 109 99.5 198t175.5 117q42 12 81 12q60 -1 115 -27q92 -44 125 -145q14 -43 14 -85q0 -50 -20 -98q-37 -89 -125 -132q-22 -9 -42 4t-20 32.5t21 33.5q42 22 70 64 q30 45 30 92q0 43 -34 83q-53 53 -123 57q-6 0 -13 1q-63 0 -116 -41q-80 -59 -109 -152q-15 -49 -16 -99q1 -44 13 -88q26 -94 95 -161q23 -27 17.5 -54t-34 -41.5t-56.5 -0.5q-29 12 -56 12q-6 0 -12 -1q-33 -3 -67 -25t-63 -50t-55.5 -64t-45 -67t-31.5 -59 q-26 -60 -38 -124q-6 -31 -6 -63q0 -34 6 -70q12 -70 54 -118q58 -65 140 -85q41 -10 82 -11l82 11q82 20 162 64t144 104t103 122q14 22 38.5 20.5t35.5 -20t0 -43.5q-69 -118 -176.5 -204t-235.5 -122q-71 -19 -139 -23q-20 -1 -39 -2q-49 0 -97 8q-68 11 -126 49t-95 101 q-48 82 -57 173z" />
<glyph unicode="F" horiz-adv-x="643" d="M-0.5 -40.5q1.5 26.5 23.5 42.5q18 13 33 27.5t28.5 34.5t22 33t20 39.5t16 37t16.5 42.5l15 40q75 203 119 354q28 93 58.5 188t79 237t63.5 186q-10 -3 -44.5 -13t-52.5 -16q-7 -2 -24.5 -6.5t-28.5 -7t-26 -5t-28.5 -2.5t-25.5 3q-56 11 -83 57q-12 21 -12 43 q0 26 17 53q17 21 38.5 20t34.5 -20.5t1 -42.5q-11 -23 31 -18q31 4 55 14l96 35q27 10 83 30.5t83 30.5q21 7 152 52.5t201 66.5q67 21 125 20q92 0 161 -51q49 -36 65 -96q7 -26 6 -52q0 -33 -11 -65q-12 -31 -43.5 -37t-54 14t-11.5 52q4 13 4 25q0 27 -21 49 q-31 32 -75 35h-13q-63 0 -143 -25q-67 -20 -188.5 -60t-157.5 -51q-39 -223 -86 -391q-18 -64 -39 -129q76 47 152 58q13 2 26 2q53 1 92 -37q35 -33 35 -77q0 -18 -6 -38q-9 -33 -41.5 -39t-56.5 15.5t-12 54.5q1 2 1 3q0 7 -16 7t-50 -8q-23 -5 -28 -8q-10 -3 -61 -29 q-46 -25 -88 -64q-9 -29 -33 -94q-80 -221 -147 -375q-75 -166 -183 -198q-29 -8 -47 9.5t-16.5 44z" />
<glyph unicode="G" horiz-adv-x="1445" d="M0 214q-2 32 -2 66q0 37 3 76q5 75 16 137.5t26 120.5q65 245 215.5 451.5t362.5 333.5q63 37 107.5 58.5t109.5 42.5q47 15 91 15q16 0 31 -1q58 -8 107 -44q49 -38 63 -91q7 -24 7 -49q0 -30 -9 -60q-17 -55 -44 -103t-62 -90q-16 -17 -38.5 -11.5t-30.5 24t3 38.5 q56 80 71 118q11 30 11 56q0 20 -6 37q-11 30 -34.5 45t-52 15t-56 -6.5t-53.5 -18.5q-168 -77 -308 -205q-140 -127 -235 -289t-131 -343q-8 -39 -14.5 -85.5t-9.5 -109.5q-3 -36 -3 -71q0 -25 1 -49q3 -57 17.5 -111.5t39.5 -91.5t70 -53q23 -8 51 -8q25 0 55 7 q120 31 202 118.5t140 219.5q86 237 90 250q12 39 47 46q8 2 15 2q26 0 46 -19q18 -18 18 -42q0 -10 -3 -22q-17 -73 -56 -253t-63 -275q78 -23 153 -23q39 0 78 7q112 18 207 90.5t143 181.5q12 32 39 32q6 0 13 -2q33 -8 45 -40q9 -24 -2 -48q-79 -178 -245 -268 q-126 -70 -265 -70q-44 0 -88 7q71 -173 71 -345q0 -75 -14 -151q-25 -152 -106 -205q-42 -20 -82 -20q-17 0 -34 4q-57 12 -104 59q-26 28 -40.5 65.5t-16.5 83.5q-1 23 -1 42.5t1 36.5q2 33 8 81q22 267 31 357l18 108q-144 -124 -286 -124q-11 0 -23 1q-77 4 -135 35.5 t-92 80t-53.5 114t-24.5 134.5zM681.5 -643.5q0.5 -23.5 6.5 -44.5q10 -32 35 -54t51 -3q59 43 64 184q2 31 2 63q0 176 -72 348q-24 -68 -41 -131q-9 -30 -15.5 -67t-9.5 -61.5t-7.5 -69.5t-6.5 -64q0 -10 -3.5 -43.5t-3 -57z" />
<glyph unicode="H" horiz-adv-x="1146" d="M0 -23q5 24 31 33q23 8 43 21t35 26t28.5 34t22 36.5t18.5 42t15 42t14.5 45t13.5 42.5q16 51 48 152.5t48 152.5q-46 -14 -86 -14q-16 0 -30 2q-65 10 -109 62q-29 35 -29 75q0 19 7 39q22 63 76 86q24 10 49 10q32 0 67 -16q19 -9 19.5 -30t-15.5 -35.5t-37 -8.5 q-9 2 -17 2q-25 0 -42 -22q-21 -27 -5 -47q9 -12 28 -15q6 -1 13 -1q36 0 91 26q28 16 59 28q22 90 78.5 337.5t91.5 381.5q7 27 33.5 35.5t49.5 -5.5t20 -42q-24 -234 -76 -463q-8 -37 -26.5 -103.5t-22.5 -84.5q150 45 278 45q36 0 70 -4l18 71q119 509 250 863 q28 76 94 122q40 28 83 29q28 0 57 -12q68 -27 100 -87q20 -37 21 -77q0 -26 -9 -53q-9 -26 -32 -31t-41 11.5t-13 43.5q2 10 2 19q0 33 -24 61q-19 23 -45 23q-14 0 -29 -6q-17 -6 -28.5 -17t-20 -31.5t-11 -28t-10.5 -34.5q-3 -13 -75 -293q-15 -63 -65.5 -269t-76.5 -319 q-11 -48 -55.5 -262.5t-75.5 -328.5q-1 -3 -7.5 -27t-8.5 -33.5t-5.5 -29t-2.5 -34.5t6 -28q9 -24 23 -33t30 -5t31.5 14t30.5 26q85 91 147 233q15 25 38 25.5t39.5 -23t4.5 -49.5q-107 -233 -219 -299q-46 -23 -92 -25q-2 0 -5 -1q-43 0 -82 27q-41 28 -57 79q-9 31 -9 61 v5q0 29 5 73q5 48 6 62q5 65 35 217q24 123 51 246q-8 0 -45 -2t-48.5 -3t-43 -3t-48 -4.5t-42.5 -6.5t-48 -9.5t-44 -12.5q-7 -2 -21.5 -7t-21.5 -7q-27 -100 -29 -109q-6 -24 -18.5 -76.5t-21.5 -85.5t-24 -85t-29.5 -88t-35.5 -80.5t-45.5 -76t-55 -61.5t-68.5 -49.5 t-81 -28.5q-27 -6 -43.5 12.5t-11.5 42.5z" />
<glyph unicode="I" horiz-adv-x="641" d="M6 966q-6 39 -6 77q0 65 19 127q30 100 94 182q25 32 62 66.5t83.5 69.5t96.5 57t97 28q10 1 19 1q37 0 70 -18q42 -24 69 -79q31 -62 31 -160q0 -78 -20 -180q-31 -156 -105 -404q-134 -424 -295 -786q-23 -37 -57 -38h-1q-33 0 -59 33q-15 20 -15 43q0 15 7 31 q132 305 236 615q133 394 174 610q15 81 15 131q0 31 -6 51q-13 44 -53 44q-14 0 -32 -5q-61 -15 -121.5 -54.5t-105.5 -92.5q-97 -103 -109 -231q-2 -18 -2 -35q0 -110 68 -213q12 -19 1.5 -38.5t-30 -23.5t-37.5 10q-70 77 -88 182z" />
<glyph unicode="J" horiz-adv-x="671" d="M1 184q-1 8 -1 15q0 45 26 85q30 46 93 60q27 7 43.5 -12t11.5 -43t-31 -31q-43 -10 -50 -52q-1 -6 -1 -13q0 -33 29 -56q35 -35 88 -35q93 0 174 91q136 151 233 370q99 230 121 436q1 11 6.5 61t8 69.5t8 58t12.5 68.5t16 59l-36 -12q-9 -3 -54.5 -18t-64 -19.5 t-54.5 -10.5q-23 -4 -42 -4q-12 0 -23 1q-28 4 -55 16q-55 24 -83 74q-17 30 -17 63q0 20 6 41q7 22 29 28.5t40.5 -5t16.5 -35.5q-2 -33 8.5 -53t33.5 -25t46.5 -5t58 10.5t56.5 18t53.5 20.5t37.5 15q148 57 314 88q9 2 27 5q39 7 60.5 10.5t61.5 9.5q37 5 61 5q2 0 4 -1 q25 0 60 -2.5t59 -12.5t49 -25.5t41.5 -41t26.5 -59.5q9 -33 -13 -54t-53 -14.5t-42 39.5q-7 21 -23.5 34t-41 17t-48.5 5t-56 -4t-53 -9t-50 -10.5t-37 -8.5q-23 -4 -48 -9t-55.5 -11.5t-48.5 -9.5q0 -4 -4 -8q-10 -21 -18 -42.5t-14.5 -48.5t-10 -43.5t-7.5 -50.5 t-5.5 -44.5t-4.5 -50.5t-4 -46q-20 -199 -53 -303q-87 -291 -268 -520q-32 -41 -66 -75t-77 -65t-86.5 -46t-93.5 -19h-15q-43 0 -86 18q-53 20 -87 69.5t-39 102.5z" />
<glyph unicode="K" horiz-adv-x="1130" d="M6 -142q9 13 25 17q28 7 51.5 23.5t40.5 42t30 51t23 61t16.5 61t14.5 62t12 53.5q9 38 43.5 187.5t54.5 230.5q14 58 52 198.5t55 219.5q10 42 27.5 119t33.5 141.5t33 120.5q8 28 32.5 30t45 -17t18.5 -44q-2 -45 -6 -89t-13.5 -102t-14 -84t-19 -102t-16.5 -88 q130 237 303 488q4 5 149 213q14 18 47 64t59.5 78t53.5 58q43 41 85 60q22 10 45 10q21 0 42 -8q39 -14 63.5 -44t24.5 -69q-1 -35 -29.5 -53t-57.5 -7t-30 48q-1 25 -32 -1t-45 -44l-60 -72q-42 -52 -116 -149q-112 -143 -220 -312q-143 -211 -305 -505q70 54 140 65 q19 4 37 4q33 0 61 -13q44 -20 67 -69q17 -32 19 -70q1 -10 1 -20q0 -26 -6 -50q-7 -32 -22 -75q-49 -144 -65 -270q-4 -105 -9 -139q-3 -23 0.5 -55t14.5 -46q16 -21 41.5 -15t50 21.5t50.5 42t43 47.5t28 37q73 94 112 226q9 23 35 25.5t45.5 -14.5t12.5 -42 q-28 -121 -97 -231t-168 -168q-75 -45 -133 -45q-35 0 -63 16q-44 24 -72.5 63.5t-32.5 89.5q-4 37 -4 73q0 87 21 175q29 124 90 283q15 50 15 79q0 21 -8 30q-11 15 -36 12q-44 -10 -119 -64q-76 -57 -143 -143q-55 -182 -141 -414q-38 -108 -85.5 -173t-133.5 -93 q-10 -4 -20 -4q-23 0 -38 23q-20 29 -4 54z" />
<glyph unicode="L" horiz-adv-x="1357" d="M0 163q6 60 43 103q39 46 95 68q53 20 106 20h7q56 -2 116 -20q43 92 125 284q116 274 165 370q147 293 328 444q55 43 124 63q37 11 74 10q33 1 66 -7q71 -18 111 -81q40 -64 40 -138q0 -117 -100 -261q-16 -18 -35 -18t-30 17.5t0 37.5q6 14 24.5 49t27.5 55t17 51 t7 58q1 56 -29 98q-28 39 -79 39h-7q-60 -4 -108 -41t-97 -98q-75 -91 -131 -193q-92 -158 -211 -436q-91 -216 -164 -356q23 -14 81.5 -54.5t92.5 -60.5q105 -66 236 -78q19 -1 37 -1q241 0 371 220q9 16 25 21.5t30 0.5t26 -15.5t14 -26.5t-7 -33q-44 -80 -117.5 -145.5 t-157.5 -100.5q-118 -53 -240 -53t-229 61q-45 27 -118.5 85.5t-100.5 76.5q-17 -28 -32 -51t-36 -50.5t-41.5 -47t-47 -37t-52 -25.5t-56.5 -6.5t-63 14.5q-54 23 -80 75q-21 42 -21 90q0 11 1 23zM96 168q-3 -9 -3 -19q0 -24 18 -51q19 -28 46 -29t52 20t44.5 43.5 t31.5 43.5q3 6 17 29.5t20 38.5q-45 18 -84 18q-19 0 -37 -4q-37 -9 -66 -33t-39 -57z" />
<glyph unicode="M" horiz-adv-x="2066" d="M61 471q9 25 35.5 29.5t44 -12t6.5 -42.5q-47 -116 -55 -168q-3 -21 -3 -41q0 -37 11 -67q16 -43 47 -70.5t69 -28.5q1 0 2 -1q36 0 73 36q33 33 63.5 71t63 87.5t51 79.5t55 93.5t47.5 82.5q259 441 398 934q7 26 26 39t39.5 11.5t40.5 -15t29 -35.5q155 -379 166 -723 q1 -32 1 -65q0 -104 -14 -213q259 474 347 1001q6 33 33.5 43t56.5 -3t39 -40q24 -68 55 -229q20 -97 20 -207v-29q-8 -330 -32 -483q-2 -17 -12 -74t-17 -104t-14 -102q-7 -51 -7 -88v-6q0 -38 8 -52q18 -32 52 -38q11 -2 21 -2q22 0 44 10q32 14 54 38q23 24 41.5 57 t26.5 55t24 68q11 32 42.5 38t53.5 -15t10 -53q-19 -50 -35 -87t-45 -84t-59.5 -77t-74.5 -50q-42 -20 -90 -20h-5q-53 1 -94 20t-65 50.5t-39 73.5q-14 40 -16 86v26q0 34 3 68q3 24 42 252q38 222 38 342v6q0 98 -10 225q-161 -577 -506 -1067q-22 -32 -60 -34q-3 0 -6 -1 q-34 1 -57 25q-16 17 -16 41q0 12 4 26q88 275 96 572q1 30 0 60q0 266 -68 521q-181 -544 -495 -968q-8 -10 -28 -38.5t-32 -44t-34 -43.5t-38 -44.5t-40 -39t-44 -34.5t-45.5 -23t-49 -12.5t-50.5 3.5t-53 20q-131 74 -131 230q0 107 61 253z" />
<glyph unicode="N" horiz-adv-x="1335" d="M7 100q20 84 81 140q17 16 35.5 7.5t23.5 -28t-6 -39.5q-27 -35 -41 -75q-10 -29 -9 -61q0 -12 1 -24q5 -44 33 -79q45 -51 109 -53h4q61 0 104 51q9 12 17.5 25t17.5 29t14.5 26t15 30t13 27.5t14 31.5t12.5 29q31 78 97 234q111 296 172 510q17 57 35 125.5t28.5 115.5 t29.5 130.5t28 121.5q9 30 32.5 44t49.5 10t43 -23q9 -6 20 -27q106 -362 154 -719q35 -202 47 -409q84 201 139 409q33 120 86 361.5t86 361.5q58 216 117 338q69 153 186 195q34 9 67 9q19 0 39 -4q50 -10 88 -46q38 -35 60 -80q21 -44 22 -97q0 -56 -28 -104 q-18 -33 -50.5 -31t-45.5 28.5t4 60.5q16 25 16 54v8q-2 34 -20.5 59t-47.5 38q-13 6 -28 6q-17 0 -37 -8q-19 -6 -36 -19.5t-28 -26t-24 -36.5t-18.5 -36.5t-17.5 -42t-15 -37.5q-80 -215 -160 -588q-130 -591 -350 -1116q-14 -33 -48 -42q-11 -3 -21 -3q-22 0 -41 13 q-29 19 -32 54q-27 474 -57 717q-25 218 -65 455q-52 -194 -125 -414q-105 -320 -267 -639q-2 -5 -15.5 -33.5t-18 -37.5t-17 -33t-21.5 -36t-22.5 -29.5t-28 -29.5t-30.5 -22q-66 -41 -133 -41q-60 0 -121 33q-75 40 -105 120q-18 48 -19 97q0 32 8 65z" />
<glyph unicode="O" horiz-adv-x="1069" d="M25 244q-23 96 -23 196q0 169 66 351q35 99 78 186t102 172.5t127 152.5t155.5 120t186.5 81q24 7 38.5 -9.5t9.5 -38.5t-28 -30q-149 -50 -258 -168q-157 -172 -262 -462q-25 -69 -38 -108.5t-31 -109.5t-23 -120q-2 -25 -2 -53t2 -58q5 -62 25 -113q35 -89 105 -145 q71 -56 155 -62q7 0 14 -1q78 0 156 55q27 20 53.5 46t46.5 49t45 60t39 58t38.5 65.5t33.5 61t34.5 66t30.5 59.5q85 169 113 278l24 105q-83 -30 -164 -30q-69 0 -135 22q-99 33 -153 113q-34 50 -35 108q0 34 12 69q33 96 113 147q64 41 140 41q19 0 40 -3 q106 -15 187.5 -93t113.5 -186q100 80 156 199q11 21 34.5 21.5t39.5 -17t8 -39.5q-28 -81 -85 -153.5t-134 -125.5q1 -22 1 -43q-1 -82 -21 -158q-26 -98 -81 -227q-51 -121 -135 -268q-2 -3 -16.5 -27t-18 -30t-16.5 -27t-19 -29.5t-18.5 -25.5t-21 -27.5t-20 -24 t-22.5 -24.5q-96 -96 -213 -148q-75 -33 -148 -32q-41 0 -83 10q-116 31 -202 118.5t-117 205.5zM665 1100q19 -58 83 -80q50 -16 105.5 -16t117.5 16q35 8 71 24q0 20 -6 35q-38 162 -157 195q-38 10 -75 10h-2q-36 0 -69 -18q-34 -18 -53 -52q-22 -36 -22 -73q0 -20 7 -41 z" />
<glyph unicode="P" horiz-adv-x="837" d="M14 1095q28 103 97 181q119 130 312 192q116 37 224 38q72 0 141 -17q85 -20 154 -72t107.5 -122.5t48.5 -154.5q2 -18 2 -37q0 -66 -27 -132q-67 -169 -223 -238q-37 -17 -85 -31t-76.5 -20.5t-95.5 -19t-83 -15.5q-26 -83 -51 -151q-69 -200 -140 -369 q-17 -41 -31 -67.5t-36 -58.5t-51.5 -52t-65.5 -29q-27 -7 -48.5 12.5t-21 46.5t28.5 39q27 13 49 35t38 54t25.5 56.5t22.5 65t19 56.5q64 166 119 333q13 39 104 338q8 26 27 100.5t36 126.5t39 97q15 29 47.5 19.5t32.5 -39.5q0 -26 -2 -53.5t-7.5 -58t-9.5 -53t-13 -58 t-13.5 -52.5t-15.5 -57t-14 -51q-17 -64 -33 -115q138 37 178 51q164 51 215 154q29 53 29 111q-1 6 -1 10q-2 64 -27 118.5t-74 96.5t-111 57q-62 16 -131 16q-77 0 -159 -20q-158 -36 -251 -127q-99 -96 -111 -216q-2 -15 -1 -29q0 -104 79 -196q15 -16 10.5 -37t-21 -29 t-36.5 3q-89 63 -118 165q-15 52 -15 104q0 50 14 101z" />
<glyph unicode="Q" horiz-adv-x="1064" d="M25 242q-23 94 -23 194q0 166 64 350q46 126 104 233.5t136.5 205.5t182.5 169.5t226 106.5q25 6 40 -11t9.5 -39t-29.5 -30q-155 -57 -258 -168q-157 -176 -260 -462q-25 -71 -38 -108.5t-31.5 -108.5t-23.5 -120q-3 -27 -3 -58q0 -25 2 -52q4 -62 24 -113 q36 -89 106.5 -145t154.5 -62h14q78 0 156 56q8 4 38 29q0 3 1 8t1 8q9 30 14 61q2 19 2 40v24q-3 35 -24 55q-18 17 -51 17h-10q-21 -1 -32.5 17t-5 38.5t27.5 25.5q17 3 33 3q57 0 95 -36q49 -46 66 -124q60 85 168 297q82 164 111 278q4 18 13 51.5t13 51.5 q-84 -30 -163 -30q-70 0 -136 24q-101 33 -155 112q-34 48 -34 104q0 34 13 70q32 97 112 148q64 42 141 42q20 0 40 -3q106 -15 186.5 -93t112.5 -186q96 72 156 199q11 22 34.5 23t39 -17t6.5 -41q-26 -82 -82.5 -153.5t-134.5 -123.5q2 -24 2 -49q0 -78 -20 -152 q-26 -96 -83 -229q-46 -112 -135 -268q-6 -9 -26 -42.5t-30 -48.5t-27.5 -40.5t-33.5 -45t-33 -36.5q-35 -35 -61 -53q-3 -43 -3 -72q0 -14 1 -24q4 -45 33.5 -70.5t68.5 -26.5q4 -1 8 -1q35 0 72 12q22 9 37.5 -6t15 -38t-19.5 -36q-44 -30 -98 -34q-9 -1 -19 -1 q-43 0 -82 16q-47 19 -84.5 59.5t-50.5 94.5q-6 18 -6 43q-94 -42 -179 -42q-40 0 -77 9q-117 30 -202.5 118t-116.5 206zM664 1096q19 -59 84 -80q48 -15 103.5 -15t117.5 15q35 8 73 26q0 18 -6 33q-44 164 -159 195q-38 9 -75 10h-3q-35 0 -67 -17q-33 -18 -52 -53 q-22 -36 -22 -73q0 -20 6 -41z" />
<glyph unicode="R" horiz-adv-x="1341" d="M1 -59.5q-4 19.5 13 36.5q50 41 89.5 93t70 118.5t49.5 117t46.5 132.5t41.5 121q18 49 65.5 176.5t72.5 196.5q60 159 71 184q4 9 16.5 41.5t18.5 47.5t18.5 38.5t24.5 40.5q15 23 45 18t29 -36q-1 -19 -4.5 -39.5t-10 -44.5t-10.5 -38t-13.5 -43.5t-12.5 -37.5 l-74 -211q-24 -66 -71 -198t-70 -197q-74 -204 -117 -286q-91 -178 -223 -261q-19 -12 -40 -0.5t-25 31zM20 1080q24 95 84 175q96 127 252 195q127 56 258 56q29 0 58 -3q194 -16 278 -112q94 -105 94 -231q0 -18 -2 -36q-26 -235 -260 -415q52 -55 60 -121q8 -43 10 -96 q2 -44 2 -74v-11q0 -32 -3.5 -100.5t-4.5 -89.5v-8q0 -40 8 -77q10 -41 30.5 -76t58.5 -50q20 -8 44 -8q20 0 43 6q130 35 242 229q9 17 33.5 24t37.5 -1q13 -9 17 -24.5t-2 -28.5q-4 -10 -12 -27t-30.5 -56t-48.5 -73t-66 -69t-83 -54q-55 -26 -125 -26h-21q-84 4 -141 49 q-33 26 -54.5 60t-32 75t-15.5 77t-9 83v5t-0.5 5t-0.5 6q-17 170 -19 231q0 3 0.5 17.5t0.5 25.5t-1 27.5t-4 28t-7.5 21.5t-12.5 14t-19 0q-23 -7 -44.5 4t-33.5 30.5t-10.5 43t21.5 38.5q16 13 62.5 48t70 54t62 55t60 64.5t42 67.5t28.5 78q9 44 9 81q0 83 -47 130 q-84 81 -226 88q-18 1 -37 1q-113 0 -220 -42q-125 -50 -206 -150q-52 -64 -74 -139q-13 -43 -14 -88q0 -33 8 -65q16 -78 76 -138q18 -17 11 -39t-27.5 -27t-42.5 9q-79 65 -104 161q-13 49 -13 99q0 46 12 93z" />
<glyph unicode="S" horiz-adv-x="774" d="M8 343q23 103 98 175q34 33 78 56q44 24 92 33q15 3 30 3q32 0 62 -14q44 -20 68 -68q16 -31 -2 -54.5t-48 -20.5t-44 36q-9 22 -35.5 24t-48.5 -7t-41 -21q-54 -33 -78 -77q-34 -63 -34 -124q0 -33 10 -65q35 -119 139 -164q58 -25 123 -26q50 0 104 16q113 29 168 129 q36 66 36 139q0 37 -9 76q-21 89 -93 239t-94 216q-43 132 -43 243q0 117 48 211q47 87 128 146q76 55 161 55h12q99 -5 165 -70q60 -59 60 -145v-18q-7 -91 -61.5 -162.5t-139.5 -112.5q-35 -15 -54 16.5t13 53.5q64 41 104.5 83.5t49.5 98.5q2 14 2 28q0 49 -31 87 q-37 44 -98 43h-10q-84 -4 -141.5 -60.5t-77.5 -132.5q-13 -51 -13 -103q0 -27 4 -54q9 -63 34.5 -133t53 -123.5t60.5 -124t51 -125.5q24 -75 36 -147q6 -37 6 -75q0 -37 -5 -77q-11 -82 -53 -140q-62 -86 -166 -132q-99 -43 -200 -44h-11q-106 2 -202.5 58t-143.5 157 q-27 61 -27 126q0 36 8 72z" />
<glyph unicode="T" horiz-adv-x="299" d="M5 1276q-4 15 -4 29q0 33 24 57q25 25 53.5 3.5t11.5 -52.5q-12 -22 49 -9l45 13q15 6 46 19.5t46 19.5q98 41 164 65q213 84 334 105q74 13 118 19q38 5 91 5h19q66 -1 116 -16q57 -20 86 -72q17 -30 17 -62q0 -23 -9 -46q-9 -28 -37.5 -33t-48 13t-8.5 46q4 12 -5 20.5 t-28.5 12t-40 5t-44 0.5t-37 -1.5t-21.5 -1.5q-101 -6 -205 -31q-41 -10 -145 -41q-15 -56 -60.5 -241t-79 -306t-73.5 -237q-12 -34 -46 -151t-59 -177q-59 -136 -161 -256q-17 -22 -42.5 -13.5t-33 32t9.5 47.5q34 37 62 87.5t44 91t37 101.5q1 3 1.5 5t1.5 5t2 5.5t2 5.5 q13 37 26.5 85.5t19 71.5t21 92t17.5 77q13 62 29 123.5t39.5 138t36 117t44 137t39.5 121.5l-92 -31q-17 -6 -47.5 -17.5t-52.5 -19.5t-52.5 -16.5t-55 -13t-52.5 -4t-51 6.5q-47 14 -61 66z" />
<glyph unicode="U" horiz-adv-x="1204" d="M8 1206q-9 34 -9 67q-1 63 33 123q52 92 148 136q58 21 113 21q1 -1 3 -1q56 0 102.5 -35.5t58.5 -97.5q5 -21 5 -43.5t-4.5 -48.5t-8 -42t-12 -47.5t-11.5 -41.5q-22 -98 -70 -266q-78 -290 -147 -527q-19 -70 -45 -133q-35 -87 -35 -125q0 -34 19 -50t47 -16t56.5 6 t49.5 17q179 89 289 324q35 73 65.5 171t43.5 154.5t40 180.5q17 79 40.5 159t63.5 198.5t52 156.5q14 42 53 50q9 2 17 2q28 0 51 -21q21 -20 21 -48q0 -11 -3 -22q-5 -17 -31.5 -111.5t-46.5 -167.5t-43.5 -168t-33.5 -155q-16 -74 -52 -222t-51 -221q-2 -15 -11 -54.5 t-13.5 -66.5t-3 -60.5t13.5 -55.5q18 -31 49.5 -40t62.5 0t58 30q131 99 254 331q9 18 25 24.5t31 1.5t27.5 -16t15 -28t-6.5 -35q-64 -120 -150 -225q-3 -3 -16.5 -19.5t-18 -21.5t-17.5 -20.5t-19.5 -22t-18.5 -19t-21 -19.5t-21 -16t-23 -16t-23 -12q-50 -23 -101 -25 h-11q-45 0 -83 15q-43 17 -73 57.5t-37 97.5q-1 16 -1 33q0 45 9 101q-90 -134 -204 -205q-37 -24 -79 -44t-90 -36q-47 -15 -93 -15q-2 1 -3 1q-48 0 -84 20q-24 14 -40.5 34t-25.5 39t-11.5 47t-2.5 47.5t6 52t10 49.5t13 51t12 45q33 136 152 526q13 38 26.5 82t29 96.5 t24.5 83.5q4 11 27 67.5t33 93.5q9 34 9 64v6q-2 47 -36 66q-25 14 -55 14q-11 0 -22 -2q-42 -7 -73 -30q-54 -37 -74 -90q-18 -48 -18 -114v-13q1 -20 -15.5 -31t-35.5 -5.5t-25 25.5z" />
<glyph unicode="V" horiz-adv-x="567" d="M0 1526q-5 28 13.5 49.5t45 21t43.5 -27.5q78 -131 138 -383q47 -205 55 -383q6 -135 15 -412q217 611 476 1032q104 172 213 318q54 75 112 122.5t132 55.5q17 2 33 2q42 0 80 -15q52 -21 82 -62q30 -42 44 -92q7 -24 7 -49q1 -27 -7 -56q-14 -55 -54 -99 q-14 -15 -32 -16.5t-32 8t-23 23t-7.5 31.5t16.5 32q38 36 40 88q0 3 1 7q1 48 -33 82q-29 29 -74 29q-10 0 -20 -1q-40 -5 -73 -23t-64 -54.5t-45.5 -58t-43.5 -70.5q-5 -9 -8 -13q-103 -171 -289 -520q-298 -571 -430 -1119q-6 -27 -28 -39t-44.5 -8t-41 22t-19.5 44 q-1 28 -3.5 186t-5 219.5t-11.5 176.5t-23 206q-4 26 -24.5 168.5t-34.5 218.5q-7 38 -37 164t-39 195z" />
<glyph unicode="W" horiz-adv-x="968" d="M-1.5 1566q0.5 22 22 36t45.5 2q49 -24 86.5 -62.5t60 -76t36 -98.5t19.5 -101q5 -37 5 -101q-1 -5 -1 -11q0 -72 -2 -104.5t-8 -105.5l-1.5 -19.5t-1 -17t-1.5 -18.5q-32 -461 -74 -696q169 201 297 469q157 330 157 631q0 71 -9 141q-4 35 23.5 52t60 7t41.5 -41 q102 -392 102 -739q1 -26 1 -55q0 -67 -5 -146l111 297q32 83 89.5 236.5t105.5 278.5t93 235q151 363 361 363q26 0 53 -5q58 -11 100.5 -52t57.5 -91q7 -23 7 -48q0 -28 -10 -58q-18 -55 -69 -91q-28 -19 -55 -1t-28.5 48t26.5 51q26 15 30.5 39.5t-8 46.5t-36 38 t-48.5 16q-119 0 -200 -134q-43 -75 -78 -157.5t-82 -213.5t-60 -165l-223 -586q-17 -43 -36 -92t-41 -107.5t-35 -91.5q-8 -21 -25 -59.5t-29.5 -71t-21.5 -61.5q-10 -46 -23 -78q-6 -32 -35 -41t-55.5 8t-25.5 49q1 62 16 178.5t18 169.5q5 156 5 260q0 52 -1 91 q-4 120 -8 182q-45 -153 -102 -270q-34 -72 -75.5 -142.5t-94 -143t-92 -124t-106 -135t-99.5 -125.5q-19 -18 -43 -18t-43.5 17.5t-16.5 41.5q12 123 50.5 396.5t50.5 420.5q3 31 9.5 96.5t10 105t7 95t4.5 102.5q0 238 -132 316q-22 16 -21.5 38z" />
<glyph unicode="X" horiz-adv-x="1413" d="M4 -20q70 166 170 319t240 330q162 204 213 266q0 43 -4 125q0 12 -1.5 54.5t-2.5 59t-3 53t-5 58.5t-7.5 52.5t-11.5 56.5q-6 24 -17.5 50.5t-29.5 55t-39.5 44.5t-48 18.5t-54.5 -21.5q-20 -16 -42.5 -8.5t-28 27.5t9.5 41q40 45 100 55q18 3 34 3q41 0 79 -17 q109 -48 158 -193q46 -142 59 -332q30 36 88.5 108.5t87.5 108.5q125 155 289 348q14 16 63 74.5t76 89.5q65 74 111 95q44 22 97 22q16 0 34 -2q74 -9 115 -63q45 -58 49 -128q0 -6 1 -12q0 -63 -38 -119q-18 -27 -47 -22t-38 29.5t9 52.5q24 28 24 63q-1 10 -3 22 q-10 50 -54 71q-25 11 -50 11q-11 0 -21 -2q-35 -7 -64 -34q-29 -26 -59.5 -60.5t-50 -60t-52 -69.5t-47.5 -64q-136 -180 -430 -545q-3 -3 -82 -100q0 -19 1 -59t1 -60q0 -197 15 -336q1 -12 6 -60t8 -68.5t10 -58t17 -66.5t24 -56q25 -47 52.5 -76t68.5 -37q24 -4 47 -4 q55 0 100 23q32 17 65 44t51 46.5t54 61t48 55.5q16 17 38.5 11t31 -25t-2.5 -40q-41 -56 -87.5 -104t-105.5 -90.5t-127 -60.5q-37 -10 -74 -10q-30 0 -60 7q-66 13 -118.5 56t-82.5 106q-79 169 -98 283q-26 163 -29 336q-35 -42 -205 -252q-87 -107 -134.5 -169 t-112 -161.5t-105.5 -189.5q-14 -22 -34 -21.5t-34.5 21t-3.5 43.5z" />
<glyph unicode="Y" horiz-adv-x="925" d="M-59 -412q-1 12 -1 23q0 85 33 157q37 83 112.5 146t174.5 84q13 3 24 3q32 0 50 -23q21 -26 1 -50q-13 -14 -40 -20q-76 -15 -140.5 -89.5t-76.5 -158.5q-4 -23 -4 -46q0 -65 34 -124q46 -81 134 -102q29 -6 57 -6q47 0 89 18q66 29 105.5 71.5t78.5 132t52.5 134 t38.5 137.5q5 17 7 25q31 114 98.5 374.5t97.5 366.5q4 12 11.5 36.5t11.5 37.5q-201 -212 -404 -223q-11 -1 -22 -1q-87 0 -148 43q-69 48 -93 130q-11 40 -11 83q0 45 12 93q21 85 53 183.5t57 167.5t67.5 182.5t62.5 170.5q11 30 39.5 36t49.5 -13t13 -51 q-123 -455 -164 -588q-4 -14 -12 -37t-14 -41t-12.5 -42t-9.5 -43.5t-2 -41t7 -39.5q10 -29 32 -46t49.5 -20t55.5 1t56 14q78 28 146 76t120 111.5t93.5 131t75.5 151t57.5 155t46.5 157.5q8 31 10 47q11 41 48 48q7 2 15 2q27 0 50 -20q22 -20 22 -48q0 -9 -2 -19 q-27 -116 -64 -227q-40 -152 -111 -392t-104 -360l-143 -530q-10 -35 -30 -116t-33 -128t-39 -111.5t-58 -111.5q-139 -199 -313 -209q-12 -1 -25 -1q-87 0 -169 38q-93 43 -144 127q-54 86 -59 184z" />
<glyph unicode="Z" horiz-adv-x="1288" d="M2 14q51 165 203 432q113 200 254 385q168 222 319 359q58 53 144 125q-48 -5 -94 -5q-138 0 -269 40q-26 8 -90.5 36t-116.5 41q-29 7 -55 7q-20 0 -39 -4q-19 -5 -33.5 -14t-24 -19.5t-14 -26t-6.5 -29t0 -33t4 -33.5t8 -35t9.5 -32.5t10.5 -31.5t9 -27 q7 -21 -7.5 -36.5t-36 -14.5t-32.5 20q-29 52 -47 104q-16 48 -16 104v10q2 62 35 106q49 64 123 85q35 10 69 9q40 0 80 -12q25 -7 91 -26.5t100 -28.5t88.5 -18.5t101.5 -10.5q12 0 25 -1q160 0 366 60q34 9 55.5 -10.5t19.5 -50t-28 -49.5q-30 -22 -63.5 -50t-54.5 -46 t-61 -57t-51.5 -49.5t-59.5 -59t-52 -52.5q-148 -151 -293 -332q-159 -208 -262 -381q-26 -43 -90 -163l49 12q31 6 63 6q45 0 89 -12q76 -20 168 -64q99 -46 179 -63q40 -8 82.5 -8t86.5 8q83 18 154.5 63.5t109.5 112.5q19 33 53 20q29 -11 33 -40q2 -19 -12 -37 q-104 -129 -247 -193q-92 -41 -189 -41q-53 0 -107 12q-57 14 -164.5 62.5t-167.5 62.5q-34 8 -67 8q-48 0 -96 -16q-80 -28 -121 -98l-13 -23q-13 -27 -41.5 -27.5t-49 21t-11.5 49.5z" />
<glyph unicode="[" horiz-adv-x="763" d="M348 141.5q4 429.5 4 483.5q0 319 -2 481q0 329 6 436q-5 28 8.5 52.5t45.5 25.5q218 4 321 -14q32 -6 32 -43t-32 -43q-111 -21 -272 -17q4 -50 5 -111t0.5 -97.5t-2 -115.5t-1.5 -102v-481q-1 -98 2 -443.5t-2 -445.5q59 7 139 6.5t131 -18.5q32 -12 32 -44t-32 -44 q-25 -9 -53 -14t-63 -5.5t-57.5 0t-64.5 3t-55 3.5q-86 14 -88 66q-6 52 -2 481.5z" />
<glyph unicode="\" horiz-adv-x="919" d="M166 1419q-6 14 0.5 27t20.5 20t30 10.5t30 -2t19 -18.5q102 -217 204 -443.5t249.5 -564.5t195.5 -448q12 -28 -13.5 -50t-61 -21t-47.5 30q-22 51 -151 343t-177.5 403.5t-139 325.5t-159.5 388z" />
<glyph unicode="]" horiz-adv-x="753" d="M324 -348q0 37 32 43q108 18 273 14q-7 119 2 426q1 80 2 240.5t2 240.5q1 98 0.5 443.5t5.5 445.5q-59 -7 -139 -5.5t-131 20.5q-32 12 -32 44t32 44q30 10 73 14t68 3.5t84 -4t68 -3.5q86 -19 88 -68q4 -187 -2.5 -540.5t-6.5 -423.5q-4 -320 -2 -482q-1 -36 -1 -106.5 t-0.5 -114.5t-3 -104.5t-5.5 -110.5q5 -29 -8 -53t-45 -25q-225 0 -322 19q-32 6 -32 43z" />
<glyph unicode="^" horiz-adv-x="417" d="M2 1071q63 116 182 332q9 18 47.5 21.5t47.5 -13.5q41 -76 139 -315q6 -15 -12.5 -27.5t-39 -12t-30.5 14.5q-66 147 -103 244q-21 -38 -50 -93t-50 -91t-55 -89q-9 -10 -28.5 -8t-36.5 14t-11 23z" />
<glyph unicode="_" horiz-adv-x="1083" d="M7 -202.5q16 31.5 56 32.5q295 8 951 8q43 0 61 -32.5t0 -65.5t-61 -33q-34 0 -476.5 -4.5t-474.5 0.5q-40 1 -56 32t0 62.5z" />
<glyph unicode="a" horiz-adv-x="931" d="M106 270q-4 30 -4 57q0 40 9 72q25 154 112 263q69 86 160 135q89 48 165 48h3q77 -1 113 -48q16 -22 0.5 -44t-43.5 -12q-28 9 -57 9q-35 0 -72 -14q-68 -26 -117.5 -73t-81.5 -102q-55 -88 -72 -217q-4 -34 -6.5 -66t14 -59.5t52.5 -36.5q28 -10 56 -9q57 0 113 39 q82 59 134 150q73 128 153 388q9 34 41 34h7q35 -3 51 -34q11 -21 4 -45q-39 -130 -62.5 -241.5t-27.5 -203.5q0 -11 -1 -21q0 -75 27 -100q43 -45 77 -49h6q31 0 63 38q35 44 70 126.5t83 228.5q8 33 41 39q30 5 42 -18q5 -13 1 -29q-34 -124 -67.5 -212.5t-71.5 -151.5 t-80 -91q-36 -25 -79 -25h-11q-48 4 -105 42q-60 40 -78 97q-15 47 -15 111q0 14 1 29q-33 -47 -88 -92q-41 -33 -94 -57.5t-110 -36.5q-24 -5 -47 -4q-34 0 -66 9q-56 16 -92 61q-40 42 -50 116z" />
<glyph unicode="b" horiz-adv-x="942" d="M100 285q3 42 11 87.5t22 104t19 86.5q29 144 69 266q37 119 58 184.5t59.5 165t77.5 177.5q15 29 47 30t53.5 -22t9.5 -53q-12 -31 -68.5 -169.5t-80.5 -213.5q-32 -97 -115 -396q-28 -101 -45 -200q0 -2 -5 -26t-6 -30.5t-4 -27.5t-1 -30.5t4 -26t9 -28t17 -22.5 q43 -47 98 -49q5 0 10 1q49 0 91 23q46 26 88 70q42 42 78 97q-68 35 -109 84q-62 74 -62 181v18q6 118 83 192q67 60 137 59q32 0 64 -12q42 -15 76 -56t40 -85q4 -33 4 -67q0 -126 -61 -263q12 -8 38.5 -15.5t66.5 -7.5t78.5 12.5t75 51t56.5 100.5q8 23 31 28.5 t40.5 -7.5t10.5 -35q-18 -63 -49.5 -109t-67.5 -70t-80 -36q-42 -13 -78 -15q-12 -1 -24 -1q-24 0 -50 3q-38 4 -56.5 8t-31.5 8q-2 1 -3 1q-22 -33 -37 -53q-71 -95 -164 -151q-76 -46 -159 -46q-19 0 -39 2q-114 14 -174 90q-53 67 -53 166q0 13 1 27zM527 476 q28 -82 114 -120q39 74 57 146q21 75 21 127q0 36 -10 61q-16 40 -45 40h-7q-34 -5 -65.5 -31t-46.5 -54q-29 -54 -28 -106q-1 -32 10 -63z" />
<glyph unicode="c" horiz-adv-x="552" d="M92 238q6 146 62 272q67 156 133 211q79 64 151 64q24 0 47 -7q49 -14 82.5 -46.5t40.5 -80.5q3 -22 -13.5 -36.5t-35.5 -10.5t-24 27q-7 33 -31 50t-54 15t-57 -20q-55 -38 -100 -123q-16 -32 -39 -93t-29 -75q-23 -61 -27 -118q-1 -10 -1 -19q-1 -45 13 -79 q16 -41 48 -65q29 -23 71 -23h7q47 2 102 34q73 41 152.5 155.5t103.5 204.5q7 25 29.5 30t40 -10.5t10.5 -39.5q-17 -61 -57.5 -134.5t-94.5 -142.5t-122 -119t-131 -59q-18 -2 -35 -2q-53 0 -102 20q-64 28 -104 87q-36 54 -36 120v13z" />
<glyph unicode="d" horiz-adv-x="921" d="M96 188q-9 40 -9 79q0 41 10 81q19 78 65 178q91 189 217 246q55 26 117 26h17q72 -4 128 -48q26 -21 3.5 -48t-50.5 -12q-40 20 -78 21h-4q-36 1 -66 -13q-32 -14 -61.5 -41.5t-53 -60t-44.5 -71.5t-35 -73t-25 -67q-9 -28 -15 -54t-7.5 -58.5t4 -59t22.5 -50.5t45 -38 q37 -16 74 -16q26 0 53 8q63 20 109 73q44 51 73.5 113.5t61.5 153.5q68 200 80 241q3 8 8 26t8 26q77 253 148 573q9 39 43 46q7 2 14 2q25 1 47 -19t22 -49q0 -7 -1 -15q-67 -357 -201 -706q-56 -212 -61 -355q-1 -18 1 -38.5t8.5 -44.5t22.5 -36.5t39 -5.5 q68 22 127.5 109t112.5 272q11 38 44 43q30 4 39 -21q5 -12 1 -30q-55 -224 -158 -366q-88 -121 -172 -121q-17 0 -34 5q-54 15 -101 83q-37 53 -43 129q-122 -191 -290 -191h-17q-84 5 -152 50t-86 124z" />
<glyph unicode="e" horiz-adv-x="532" d="M117 203q-13 57 -13 113q0 74 23 145q53 160 111 225q70 76 145 76q18 0 35 -4q52 -12 79 -48.5t29 -91.5q0 -89 -110 -208q-80 -84 -207 -146q4 -22 8 -33q43 -128 132 -128q6 0 13 1q90 9 184 127q82 104 128 244q8 23 31 30t40.5 -6t10.5 -38q-55 -201 -195 -330 q-118 -108 -237 -112h-8q-114 0 -170 105q-19 34 -29 79zM207 338q162 99 221 227q18 39 18 63q0 27 -22 36q-17 8 -34 8q-15 0 -30 -6q-51 -23 -90 -115q-56 -128 -63 -213z" />
<glyph unicode="f" horiz-adv-x="497" d="M-72 -451q0 32 5 69.5t10.5 64.5t15.5 71t14 66q34 177 60 286q83 343 145 572q116 391 156 549q3 15 23 24.5t40 5.5q19 -4 31.5 -21t9.5 -32q-20 -90 -66 -249.5t-61 -217.5q-55 -181 -98 -356q4 -17 40 -41t90 -38q42 -11 86 -11q12 0 25 1q56 4 108.5 52t78.5 139 q6 19 28 24t40.5 -6.5t13.5 -31.5q-21 -90 -71.5 -152.5t-115.5 -88.5q-59 -23 -125 -23h-11q-71 2 -136 33q21 -101 24 -207q1 -25 1 -49q0 -76 -7 -137q-10 -80 -26 -149.5t-29 -106t-20 -48.5q-63 -129 -157 -129h-7q-49 1 -81 43t-34 94zM25 -422q-3 -26 3 -48.5t22 -31 t44 14.5q50 43 84.5 160.5t39.5 271.5v31q0 140 -36 288q-51 -204 -110 -467q-5 -20 -16 -67.5t-19 -83.5t-12 -68z" />
<glyph unicode="g" horiz-adv-x="851" d="M92 322q24 150 96 251q89 131 193 175q32 13 53.5 21t50.5 14.5t56 4.5t53 -12q22 -9 17.5 -36.5t-27.5 -32.5q-19 -3 -57.5 -4.5t-67 -7.5t-53.5 -23q-82 -54 -134 -150q-23 -44 -41 -87.5t-34 -101.5q-10 -38 -10 -73q0 -18 3 -36q8 -51 43 -83q37 -33 78.5 -33 t76.5 23.5t70 63t58 75t41 70.5q32 66 53 117q38 129 62 198l12 72q1 16 14.5 23t28.5 4q20 2 34.5 -12t10.5 -37q-33 -160 -115 -476l-30 -123q36 -6 66.5 -6.5t56.5 5t47.5 13t40.5 24t33.5 32.5t29 43.5t25.5 52t24 62.5t22.5 70.5t22.5 80.5q5 18 27 22t40.5 -7 t14.5 -29q-28 -119 -58 -197.5t-77 -140.5t-115 -87q-52 -19 -117 -19q-21 0 -44 2q1 -1 7.5 -4.5t12.5 -9.5t16.5 -24t20.5 -46q23 -74 23 -154q0 -42 -6 -85q-19 -127 -91 -222q-34 -47 -81 -75q-28 -17 -58 -17q-17 0 -35 6q-53 16 -81 52q-25 32 -25 78v13q9 104 63 293 q15 53 43.5 151t40.5 140l4 8q-77 -84 -155 -102q-27 -8 -57 -8q-28 0 -57 7q-61 14 -97 58q-66 84 -66 186q0 24 4 50zM475.5 -458.5q-0.5 -11.5 0 -28.5t7.5 -27.5t19 -9.5q41 4 80 67q47 73 66 147q13 57 13 102q0 14 -1 28q-6 54 -27 96q-28 46 -37 64 q-27 -117 -53 -201q-6 -23 -32 -98.5t-34 -118.5q-1 -9 -1.5 -20.5z" />
<glyph unicode="h" horiz-adv-x="784" d="M23 -10q6 29 22.5 87.5t22.5 84.5l38 172q64 273 82 344q17 79 84 344q8 33 22.5 96.5t27 114t26.5 92.5q6 19 26 31.5t40 9.5q24 -4 37.5 -25.5t7.5 -40.5q-25 -82 -84 -344q-10 -45 -36.5 -163t-41.5 -181l-25 -106q67 95 138 172q9 9 38.5 43t48.5 53t48.5 39t56.5 23 q9 1 17 0q41 0 73 -24q38 -30 41 -83v-17q0 -103 -43 -288q-7 -28 -18.5 -82.5t-18.5 -81.5q-2 -10 -13.5 -56.5t-11.5 -70.5q-2 -37 19 -51.5t47.5 -9.5t46.5 20q20 13 26.5 18t28.5 32t38 64t42 111t54 175q10 35 43 39q30 3 40 -20q5 -12 1 -28q-50 -183 -75 -245 q-65 -162 -179 -228q-44 -28 -95 -28h-10q-57 3 -98 45q-22 24 -33.5 54.5t-12 65.5t3 63t11.5 66q8 34 23 101t27.5 120t25.5 99q4 17 14 47t13 43q1 3 1.5 5.5t1.5 9t1.5 10.5t0.5 11t-1.5 10t-4 7.5t-7 3t-11.5 -3.5q-7 -3 -13.5 -7t-14 -10l-12.5 -10t-13 -12 l-11.5 -11.5t-13 -13.5t-11.5 -12t-12 -13.5t-11 -12.5q-105 -115 -183 -236q-38 -59 -110 -194q-1 -4 -5 -25.5t-5 -27t-4.5 -25t-5.5 -27t-6 -25t-7 -26.5t-7 -23.5t-8 -24.5t-9.5 -22t-10.5 -22q-16 -31 -46.5 -36.5t-52.5 15t-15 52.5z" />
<glyph unicode="i" horiz-adv-x="374" d="M50 154q0 7 -1 14q1 44 9 76q10 36 30 95q2 4 2.5 6t1.5 5l2 6q44 126 64 168q4 8 17 34.5t20 40.5t21 32.5t28 30.5q17 7 37.5 -0.5t19.5 -26.5q1 -15 -3 -32t-8 -26.5t-14 -29.5t-12 -25q-45 -97 -71 -172.5t-48 -181.5q-4 -20 -4 -35q0 -44 36 -44h4q57 2 148 88 q116 109 169 244q13 32 20 62q5 19 27 21.5t40.5 -11t12.5 -32.5q-40 -166 -171 -306q-109 -115 -213 -143q-26 -7 -48 -7q-60 0 -90 52q-24 43 -26 97zM283 834v8q3 24 20 35q11 7 23 4h10q19 5 35 -3.5t22 -25.5q11 -17 0 -39q-7 -18 -16 -20l-6 -5q-7 -10 -25 -10h-4 q-24 -7 -41 10q-21 21 -18 46z" />
<glyph unicode="j" horiz-adv-x="307" d="M-29 -414v23q0 71 10 142q12 83 41.5 209t36.5 161q5 24 21 102t23.5 112.5t21.5 96t27.5 112.5t29.5 101q7 22 28 25.5t39 -11t17 -36.5q-29 -196 -114 -582q27 -15 53 -17t55 24.5t59 79t64.5 146t71.5 226.5q7 25 30 28.5t40.5 -13t9.5 -40.5q-33 -106 -54 -168 t-49 -133.5t-51.5 -108t-53.5 -68.5t-64 -41q-17 -4 -35 -4q-19 0 -40 5q35 -98 46 -207q5 -42 5 -82q0 -63 -11 -122q-19 -95 -66 -142q-33 -28 -70 -30q-3 -1 -6 -1q-34 0 -63 27q-20 21 -32 58t-14.5 61t-5.5 67zM66 -500q4 -13 9 -24t13 -20t18 -4t19 26q23 57 33 112 q9 42 9 82q0 11 -1 22q-3 51 -8 84t-17.5 81t-15.5 63q-4 -24 -15 -64.5t-14 -54.5q-25 -166 -28 -198q-5 -40 -5 -69q0 -21 3 -36zM201 834v8q3 24 20 35q11 7 23 4h10q19 5 35 -3.5t22 -25.5q11 -17 0 -39q-7 -18 -16 -20l-6 -5q-7 -10 -25 -10h-4q-24 -7 -41 10 q-21 21 -18 46z" />
<glyph unicode="k" horiz-adv-x="653" d="M25 8q61 265 194 767.5t148 561.5q7 27 41 34q35 7 44 -16q4 -8 1 -20q-14 -62 -73 -305t-79 -360q43 64 141 120q65 36 117 37q27 0 51 -10q31 -13 44 -34t6.5 -50.5t-21.5 -61.5t-44 -74.5t-57 -80t-65 -89t-63 -91.5q-11 -17 -16 -52q-3 -18 -3 -38q1 -18 3 -37 q4 -40 24 -73q18 -34 56 -49q18 -7 42 -7q25 0 57 8q50 14 125.5 156.5t98.5 238.5q6 23 29 29.5t41.5 -6.5t11.5 -37q-18 -66 -40.5 -127t-58.5 -137t-84.5 -129.5t-101.5 -69.5q-34 -8 -68 -9h-5q-32 0 -60 11q-31 12 -59.5 29.5t-49 46t-34.5 60.5t-15 74v7q0 38 9 78 q10 44 37 95t69 102q6 7 13.5 15.5t23.5 27.5t30 36.5t30.5 39.5t28 40.5t19 35t7 27t-10.5 13.5q-7 2 -15 2q-28 -1 -68 -27q-52 -34 -104 -92.5t-97 -139t-60 -154.5q-59 -224 -98 -351q-9 -33 -35 -38t-45 17.5t-12 55.5z" />
<glyph unicode="l" horiz-adv-x="378" d="M84 252q0 19 1.5 38t5.5 40t6.5 36.5t9.5 40t10 36t11.5 39.5t10.5 36q32 112 88 287q113 334 217 549q16 26 39.5 25t42 -25.5t9.5 -48.5q-150 -439 -297 -885q-30 -91 -30 -163q0 -54 17 -97q28 -68 83 -68h1q63 0 121 92q17 26 30.5 68.5t30 111.5t29.5 111 q7 21 29 25.5t39.5 -9.5t11.5 -36q-10 -39 -21.5 -91t-18.5 -85t-17.5 -73.5t-21 -66t-26 -53t-33.5 -43.5t-44 -27.5t-58 -15.5q-20 -3 -38 -3q-92 1 -160 63q-79 73 -78 186v6z" />
<glyph unicode="m" horiz-adv-x="880" d="M33 14q2 35 7 71t15 77.5t17 68.5t21.5 77t19.5 69q59 231 92 330q9 23 31 27t40 -11.5t15 -38.5q-12 -91 -31 -190l72 120q47 79 72 104q36 36 75 36q22 0 45 -11q48 -22 48 -109q0 -27 -5 -61q3 7 6 11q6 12 26 56t37.5 72t39.5 46q32 26 67 26t64 -28q35 -35 35 -99 q0 -16 -2 -34q-3 -48 -18.5 -114t-27.5 -113t-18 -112q-1 -17 -2 -32q0 -45 12 -78q15 -55 42 -55q19 0 45 28q68 75 134 281q9 27 17 55q8 27 31.5 35.5t41 -6t9.5 -43.5q-56 -196 -103 -284.5t-129 -137.5q-36 -23 -76 -25h-5q-38 0 -74 25q-58 46 -58 142q0 11 1 22 q2 36 7.5 74t14.5 88t12 73q5 23 19 68t23 83.5t10 72.5q0 18 -6 18q-11 0 -44 -59q-7 -12 -12 -23q-32 -51 -51 -86l-105 -172q-9 -90 -43 -297q-5 -37 -38 -48q-12 -4 -23 -4q-20 1 -38 13q-22 15 -23 41q0 7 2 15q60 372 110 575q8 39 -13 20t-54 -71l-68 -113 q-62 -108 -129 -213q-40 -101 -72 -282q-6 -31 -33 -35t-51.5 16.5t-23.5 48.5z" />
<glyph unicode="n" horiz-adv-x="655" d="M23 -4q100 473 184 702q6 21 25 25t35 -10t14 -35q-3 -43 -21 -160q5 7 13.5 21.5t13.5 21.5q9 14 34.5 58.5t45.5 72.5t45 49q26 22 63 22q5 -1 11 -1q44 -4 67 -35q10 -12 16.5 -28.5t9 -28.5t1.5 -34.5t-2 -31t-5 -34.5t-4 -29q-11 -98 -34 -277q-18 -94 -21 -133 q-1 -11 -1 -20q0 -51 28 -51h2q42 4 109 99q96 136 147 324q10 38 42 46q29 8 41 -16q8 -15 1 -38q-74 -251 -167 -381q-91 -127 -212 -127h-6q-43 4 -76.5 43.5t-36.5 85.5q-1 10 -1 20q0 28 4 58q6 40 18 96.5t16 77.5q7 39 26 131.5t27 143.5q4 4 5 31q-2 21 -11 16 q-11 -7 -41 -47q-43 -68 -70 -115q-25 -36 -70.5 -113.5t-68.5 -111.5q-13 -59 -40 -161.5t-36 -137.5q-9 -36 -41.5 -47.5t-59 6t-19.5 53.5z" />
<glyph unicode="o" horiz-adv-x="749" d="M90 285q22 175 103 319q71 126 164 126q7 0 14 -1q28 -3 34 -34t-24 -36q-32 -4 -57 -26.5t-37 -44.5t-27 -58q-42 -112 -55 -200q-9 -49 -8 -88q0 -67 24 -107q12 -19 29 -35t46 -23.5t61 2.5t75 52t86 115q-60 47 -100 122.5t-44 163.5v10q0 83 58 154q56 67 144 72h11 q80 0 130 -66q41 -59 41 -137q0 -107 -76 -250q-12 -24 -27 -45q40 -9 73 -9q13 0 24 1q41 5 75 55.5t64 157.5q6 20 27.5 24t39.5 -9t13 -35q-17 -78 -47 -134t-66 -85.5t-80 -41.5q-34 -10 -67 -10h-19q-42 4 -86 19q-51 -70 -105.5 -116t-99.5 -63.5t-89 -19.5h-14 q-34 0 -58 8q-30 10 -52 25q-57 43 -82 109q-18 49 -18 101q0 19 2 38zM458 496q11 -62 39.5 -109t67.5 -74q81 136 84 258v15v17t-0.5 16.5t-2 17t-4 15.5t-6 15t-9 11t-13 9.5t-16.5 4.5q-10 2 -20 2q-28 0 -54 -14q-34 -20 -49 -57q-20 -46 -20 -91q0 -18 3 -36z" />
<glyph unicode="p" horiz-adv-x="819" d="M-115 -559q77 301 178 708.5t111 446.5q1 3 3.5 14.5t3.5 15.5t4 14l4.5 15t4.5 14t5.5 14.5t6 13.5t7.5 13.5t8.5 12t9.5 12.5q19 21 42.5 15t29.5 -33q3 -15 3 -34q0 -33 -9 -77q15 20 37 53q23 32 43.5 56.5t50 49.5t57.5 37.5t63 12.5t70 -18q70 -36 111.5 -125.5 t44.5 -177.5q1 -15 1 -30q0 -116 -42 -224q51 -29 85 -29q32 0 51 25q39 51 94 249q1 2 1.5 3.5t0.5 3.5q8 27 32 35t41 -7t9 -45q-44 -153 -59 -190q-61 -155 -156 -166q-7 -1 -15 -1q-50 0 -112 34q-11 4 -13 6q-2 -4 -8 -13.5t-8 -13.5q-38 -51 -85 -79q-45 -27 -97 -27 q-3 0 -6 1q-56 1 -107 40q-59 49 -59 132q0 86 65 130q38 27 81 31q10 1 21 1q30 0 55 -8q35 -12 77 -35q19 62 22 119q1 25 1 47q0 155 -60 213q-17 17 -37.5 19t-42.5 -10.5t-45 -33t-47 -51.5t-46 -62.5t-44 -69.5t-39.5 -69.5t-34.5 -64.5q-31 -92 -55 -170t-49 -174.5 t-40 -156.5t-50 -206.5t-56 -234.5q-6 -24 -21.5 -37.5t-33 -13t-33 8.5t-23.5 27.5t-2 43.5zM414 210q-3 -9 -3 -17q0 -28 27 -48q18 -10 36 -10q37 0 75 45q22 33 37 58q-58 35 -96 35q-16 0 -29 -7q-37 -16 -47 -56z" />
<glyph unicode="q" horiz-adv-x="778" d="M86 293q7 65 26 124.5t48 112.5q59 111 162 174q67 40 138 40q38 0 77 -11q32 -9 25.5 -40t-40.5 -27q-14 2 -28 2q-76 0 -138 -48q-74 -56 -112 -149q-39 -89 -45 -180v-14q0 -42 11 -85q12 -51 44 -75q31 -22 62 -25t58.5 10.5t51.5 34t45.5 51t36.5 56t29 53.5 q84 162 120 358q6 31 33 39t50.5 -10t19.5 -49q-22 -177 -98 -328q-124 -486 -173 -643q-1 -3 -9 -23.5t-11.5 -31.5t-8.5 -33t1 -27q6 -12 43.5 28.5t40.5 49.5q73 95 131 191q114 189 244 657q7 24 30 31t40.5 -6.5t10.5 -38.5q-57 -224 -139 -434t-157 -326 q-68 -106 -95 -139q-85 -108 -150 -108q-42 0 -75 44q-14 17 -19 41.5t-1.5 55.5t8 53t14.5 57t12 45q37 149 82 309q4 8 4 15q-49 -38 -101 -55q-33 -11 -68 -11q-21 0 -43 4q-58 11 -107 54q-47 41 -66 102q-15 45 -15 93q0 16 1 32z" />
<glyph unicode="r" horiz-adv-x="528" d="M84 778q14 45 50 63q21 10 43 10q15 0 31 -5q38 -13 64 -51q20 -29 20 -76q0 -8 -1 -17q75 15 127 84q17 23 42 23q12 1 26 -5q34 -13 34 -44q0 -7 -2 -15q-9 -41 -32 -127.5t-33 -132.5q-5 -20 -30.5 -107.5t-33.5 -135.5q-4 -27 -4 -49q0 -39 12 -66q11 -22 33 -28.5 t44.5 0t39.5 20.5q41 32 89.5 156.5t68.5 207.5q7 27 30.5 35t41.5 -6.5t10 -42.5q-57 -207 -97 -295q-44 -97 -88 -127q-61 -43 -121 -44h-3q-59 0 -115 48q-31 28 -46 64q-14 33 -14 71v8q2 43 8 74.5t19 79.5q11 41 35 131t37 137q-48 -16 -91 -16h-14q-22 -70 -45 -154 q-8 -21 -30 -24.5t-39 10.5t-11 35q10 42 41 151q-56 22 -86 64q-18 25 -18 55q0 19 8 41z" />
<glyph unicode="s" horiz-adv-x="634" d="M135 453q17 72 39.5 131t38 86.5t37.5 60t26 39.5q13 26 35.5 31.5t40.5 -10.5q98 -82 157 -197t66 -242q2 -20 2 -42t-2 -44q12 6 38 18.5t39.5 20t35.5 24.5t36 35.5t29 49.5t25 71q6 22 28.5 25t40.5 -12.5t11 -36.5q-20 -68 -45 -115t-57.5 -76.5t-57.5 -45 t-67 -35.5q-10 -5 -15 -7q-23 -12 -63 -28q-43 -122 -152 -146q-24 -5 -45 -5q-30 0 -58 11q-46 19 -56 74q-2 10 -2 20q0 33 27 58q35 32 83 37q66 8 101 16q10 46 10 93.5t-10 97.5q-37 156 -119 264q-1 -2 -15 -14.5t-20.5 -22.5t-20 -34t-28 -65.5t-31.5 -99.5 q-6 -20 -28 -24t-40.5 8t-13.5 31zM352 80q29 3 45 22l15 21q-27 0 -41 -2q-9 1 -15 1q-19 0 -19 -11t15 -31z" />
<glyph unicode="t" horiz-adv-x="344" d="M26 1204q21 37 64 37h4q23 -1 32.5 -19.5t-0.5 -37t-32 -19.5q22 1 43.5 7t53 18t42.5 16q19 8 32 14t38 15q21 9 53 20q18 53 39 105q10 25 34.5 30.5t42.5 -11t11 -44.5q-2 -6 -5 -18.5t-5 -18.5q9 4 14 6t6 2.5l2 1t5.5 2.5t13.5 5q7 3 31.5 12t35.5 13t33.5 10.5 t37 8t34 1.5t36 -5t32.5 -14q34 -22 42 -61q2 -10 2 -19q0 -28 -18 -53q-14 -20 -36.5 -18.5t-31.5 18.5t1 41q7 13 -26 9q-26 -3 -34 -7q-17 -6 -46.5 -17t-41.5 -15l-98 -35q-14 -4 -23 -8q-5 -21 -32 -130t-43 -167q-73 -256 -121 -433q-5 -21 -25 -102t-33 -125 q-14 -43 -14 -72q0 -24 10 -38q15 -21 38 -21q26 0 61 27q82 64 150 219q32 74 54 158q8 35 42 38q29 3 40 -20q6 -12 2 -27q-73 -307 -270 -448q-27 -20 -59 -29q-19 -5 -39 -5q-14 1 -29 3q-35 6 -57 33q-34 39 -42 89q-3 21 -3 43q0 30 6 60q28 196 131 572 q54 194 100 329q-38 -15 -98 -34q-30 -9 -50.5 -13t-49 -5t-50 11t-36.5 37q-12 20 -12 40q0 19 11 38z" />
<glyph unicode="u" horiz-adv-x="790" d="M62.5 154.5q-0.5 35.5 4 59t15.5 62.5q57 204 76 267q3 11 14.5 54.5t17.5 64.5t19.5 53.5t28.5 54.5q20 27 51.5 19t32.5 -41q1 -28 -5 -58.5t-20.5 -76t-17.5 -56.5q-10 -34 -60 -199q-5 -15 -19.5 -53t-23 -67.5t-10.5 -55.5q0 -3 -1 -6q0 -42 27 -68q14 -14 33 -14 q18 0 39 12q132 74 225 279q67 141 86 324q3 28 20 46t38.5 19.5t41.5 -6t31.5 -29t6.5 -49.5q-8 -39 -15 -63q-5 -37 -14 -75t-23.5 -93.5t-19.5 -73.5q-2 -10 -17 -55.5t-23 -77.5q-7 -27 -7 -58v-12q2 -38 22 -55q33 -29 64.5 -35t59.5 10.5t54.5 49.5t51 83.5t46 111.5 t42.5 136q9 34 41 40q30 4 40 -20q6 -14 1 -34q-23 -79 -44.5 -140t-46.5 -115.5t-50.5 -92t-55.5 -64.5t-64 -39q-30 -10 -64 -10h-9q-40 2 -86 19q-97 36 -97 158q0 13 1 26q-32 -44 -58.5 -76t-63.5 -67q-38 -34 -78 -52q-36 -16 -73 -16h-8q-108 7 -143 92 q-13 27 -13.5 62.5z" />
<glyph unicode="v" horiz-adv-x="702" d="M77 203.5q2 32.5 3 49t7.5 49t10 48.5t11 48t10.5 46q28 111 110 301q9 19 28.5 20t34 -14.5t9.5 -35.5q-58 -206 -88 -410l-6.5 -32.5t-6 -33t-5 -33.5t-3 -33.5t0.5 -33.5q4 -30 21 -41.5t40 -6t44.5 17t37.5 26.5q71 63 127 144q-22 65 -29 143q-1 19 -1 39 q-1 51 7 103q10 72 36 134t68 84q17 9 37 9q30 0 66 -19q78 -45 77 -165q0 -26 -3 -56q-23 -163 -135 -307q29 -30 59 -30l11 1q35 7 65 35.5t56.5 75t44 89t26.5 77.5q6 23 27.5 25.5t39.5 -13t13 -35.5q-17 -76 -49.5 -143.5t-74.5 -113.5t-88 -71q-38 -20 -77 -20 q-9 0 -19 1q-48 6 -90 46l-6 4q-55 -55 -75 -72q-44 -35 -72 -54.5t-74 -35.5q-32 -12 -63 -12q-13 0 -25 2q-58 10 -92.5 53t-42.5 103q-5 15 -3 47.5zM524 393q8 13 11 23q21 43 55 151q1 4 5 18.5t6 22t4 19.5t1.5 22t-2.5 19q-7 23 -23 29.5t-32 -17.5q-11 -17 -23 -118 q-7 -56 -6 -102q0 -37 4 -67z" />
<glyph unicode="w" horiz-adv-x="798" d="M71.5 176q-0.5 24 0 38t6.5 41.5t9 38.5t11.5 39.5t10.5 33.5q12 45 116 383q7 24 27 27.5t35.5 -13t9.5 -39.5q-42 -207 -55 -264q-4 -18 -30.5 -111.5t-27.5 -142.5q0 -9 0.5 -17.5t2 -21t5 -20.5t9.5 -16t15 -7t22 6q46 24 81 88q35 48 60 121q8 48 24 100 q6 23 30.5 28.5t45 -9t15.5 -39.5q-3 -18 -9 -39q-16 -100 -16 -164q0 -87 30 -106q19 -11 46 4q50 32 86 139q-40 62 -43 133q-4 40 -4 76q0 153 69 239q29 36 67 40q4 0 8 -1q34 -1 60 -23q30 -26 35 -69q1 -11 1 -25q0 -53 -20 -151q-26 -123 -52 -194q-6 -11 -9 -25 q29 -4 52 2t50.5 28t53 76.5t47.5 139.5q6 23 37 14t39 -34q3 -10 0 -19q-48 -165 -128 -233q-60 -51 -124 -51q-21 0 -41 5q-6 0 -10 2q-50 -134 -137 -174q-30 -13 -59 -13q-34 1 -67 19q-60 34 -79 101q0 6 -4 18q-74 -97 -153 -97q-49 0 -99 38q-16 12 -27 29t-16.5 32 t-6 39zM674 436q0 -66 2 -80q9 19 16.5 48t11 49t11 66t10.5 65q6 46 6 68q0 23 -6 23h-2q-16 -8 -34 -95q-15 -72 -15 -144z" />
<glyph unicode="x" horiz-adv-x="839" d="M137 461q57 214 150 334q21 31 53 52q26 18 53 18q5 0 10 -1q39 -3 66.5 -21.5t42 -38t24.5 -60.5t12.5 -61t5.5 -68q0 -3 0.5 -5.5t0.5 -5.5q1 -5 2 -15.5t2 -15.5q21 24 87 118t130.5 181t95.5 111q36 29 74 43q26 9 54 9q12 0 26 -2q42 -6 74 -38q27 -24 7 -54.5 t-50 -18.5q-14 6 -29 6q-18 0 -36 -8q-34 -16 -55.5 -37.5t-55 -62.5t-41.5 -50q-65 -68 -157 -218q-85 -139 -85 -191v-7q3 -12 13.5 -61.5t20.5 -81t25 -57.5q23 -40 57 -41q29 0 66 28q81 60 150 205q35 72 55 146q8 33 32 40.5t40.5 -12t7.5 -51.5q-101 -355 -293 -449 q-45 -24 -86 -24q-14 0 -28 4q-54 12 -93.5 53.5t-58.5 102.5q-18 59 -25 96q-123 -165 -178 -338q-11 -32 -40 -35t-48.5 20.5t-5.5 55.5q142 330 242 479q-11 104 -11 170q-1 5 -1 23q-7 132 -38 136q-17 1 -39 -26q-36 -44 -81.5 -138.5t-61.5 -152.5q-6 -21 -29 -27.5 t-41.5 6t-11.5 36.5z" />
<glyph unicode="y" horiz-adv-x="716" d="M83.5 158.5q1.5 22.5 3 35t7 40.5t6.5 36q57 316 115 488q11 30 45.5 19t34.5 -42q0 -18 -1 -38t-2 -37t-4.5 -40t-5.5 -37t-7.5 -40t-8 -37t-9.5 -39.5t-9 -36t-10 -38.5t-9 -36q-4 -16 -20 -79t-23 -97q-6 -30 -6 -50t6 -28q21 -21 45 -18.5t48 18.5q41 28 75.5 64 t58.5 70t44 84t31.5 84.5t24 94t17.5 90.5t15 95q11 70 67 70q20 0 36.5 -29.5t13.5 -48.5q-7 -59 -21.5 -130t-26 -115.5t-35.5 -133.5t-32 -119l-19 -67q47 -20 87 -20q20 0 38 5q56 14 107 107.5t100 279.5q7 26 30 31t40.5 -11t9.5 -42q-58 -193 -93 -268 q-87 -184 -222 -184h-11q-12 1 -24 3q43 -113 47 -240v-25q0 -114 -33 -214q-51 -150 -158 -160q-9 -1 -18 -1q-42 0 -80 22q-47 28 -69 76q-9 19 -13.5 38.5t-4 42.5t1.5 38.5t8 43t9.5 38.5t12.5 43t12 38q8 29 28 99t34 122t24 101q-81 -74 -160 -74q-103 4 -135 82 q-7 17 -10.5 35.5t-2 41zM377 -444.5q0 -14.5 3.5 -34t10.5 -37.5q14 -26 36.5 -22.5t44 20t30.5 33.5q26 51 37 98q13 56 13 118q0 126 -52 279q-82 -275 -92 -311q-3 -10 -10.5 -36t-10 -37t-6.5 -33.5t-4 -37z" />
<glyph unicode="z" horiz-adv-x="778" d="M141 475q65 229 185 287q14 7 31.5 12.5t30 8t35 4t31 1.5h35.5h31q41 0 114.5 -3.5t96.5 -4.5q29 -2 44 -26t-1 -49q-36 -55 -167 -263.5t-206 -318.5q54 -4 74 -14q65 -32 122.5 -32t103.5 27.5t87 81.5t72.5 125t59.5 164q9 33 42 37q30 3 39 -22q5 -12 0 -29 q-71 -230 -177 -353q-95 -110 -211 -110q-14 0 -29 2q-24 2 -86 18q-57 14 -97 15q-3 -1 -7 -1q-42 -2 -81 -28q-14 -10 -27 -10q-17 0 -33 18q-17 18 -17 37q0 13 8 25q56 94 116.5 187.5t158.5 239t124 183.5q-49 0 -98 6q-12 1 -40 4t-45 4.5t-40 -0.5t-41 -8 q-56 -20 -95 -85.5t-61 -143.5q-6 -21 -29 -27.5t-41.5 5.5t-11.5 36z" />
<glyph unicode="{" horiz-adv-x="702" d="M217.5 592q-6.5 22 7 43t37.5 22q106 5 174.5 59t75.5 156q5 68 -14 189t-21 162q-12 203 82 299q49 49 110.5 70.5t123.5 0.5q21 -7 27.5 -28.5t-5 -39t-35.5 -14.5q-100 9 -156 -65t-53 -178q1 -54 20 -173t17 -184q-4 -160 -84 -247q-41 -46 -100 -72q30 -18 72.5 -49 t50.5 -39q38 -41 54.5 -100.5t14 -115.5t-17.5 -114q-51 -218 -58 -278q-14 -123 40 -172q50 -45 178 -54q30 -3 39 -26.5t-5.5 -43.5t-43.5 -14q-12 2 -36.5 3.5t-49.5 7.5t-66 22q-241 90 -119 459q37 112 39 197t-30 143t-90.5 93.5t-145.5 53.5q-26 5 -32.5 27z" />
<glyph unicode="}" horiz-adv-x="864" d="M247 1549q-10 23 3.5 43.5t42.5 15.5q12 -2 36 -2.5t49.5 -5.5t67.5 -19q246 -82 136 -453q-31 -116 -31 -199t35.5 -141t94 -91t146.5 -48q27 -4 34.5 -26t-5.5 -43t-37 -23q-106 -10 -171.5 -66t-69.5 -159q-2 -67 21.5 -186t27.5 -162q20 -202 -72 -301 q-45 -53 -105.5 -76.5t-123.5 -5.5q-21 6 -28.5 27t2.5 39t34 16q100 -4 153.5 71.5t47.5 179.5q-3 52 -27.5 170.5t-24.5 184.5q-4 159 74 252q42 48 98 75q-61 32 -127 82q-39 40 -58 99t-17 115.5t12 113.5q44 222 48 284q9 121 -47 168q-52 42 -179 46q-30 2 -40 25z " />
<glyph unicode="~" horiz-adv-x="976" d="M0 537q-1 58 21.5 110t62 86.5t87.5 53t103.5 12t106.5 -38.5q25 -16 79 -62t100 -72t97 -28q83 -3 148 46t90 130q7 24 29 29t39.5 -10t11.5 -39q-34 -138 -161.5 -207.5t-262.5 -22.5q-51 19 -129.5 86.5t-122.5 87.5q-65 28 -113 5t-76 -70t-38 -107q-3 -20 -21 -25.5 t-34.5 5.5t-16.5 31z" />
<glyph unicode="&#xa2;" horiz-adv-x="765" d="M4.5 329.5q-8.5 90.5 1 178t33.5 168.5q50 177 164 321q141 187 278 222q57 18 123 8q5 14 17 36.5t16 32.5l41 101q12 20 30.5 20.5t31 -18t3.5 -39.5q-8 -18 -26.5 -56t-26.5 -57l-22 -41q57 -28 84 -90q30 -81 -2.5 -160.5t-102.5 -162.5q-13 -14 -29 -8t-20.5 22 t6.5 33q72 89 86 141q12 35 1.5 79t-44.5 64q-107 59 -250 -65q-203 -188 -262 -471q-26 -132 -14 -271q10 -83 33 -139.5t79 -81.5q46 -21 91 -23.5t86.5 14t76.5 38t72.5 59t62 65t56.5 68.5q13 16 32.5 11t27.5 -21.5t-1 -34.5q-66 -86 -127 -146.5t-133 -92.5 q-114 -50 -221 -33q-8 -37 -39 -147q-8 -23 -30 -27.5t-38.5 10t-9.5 37.5q18 61 49 147l-22 13q-71 47 -112 126.5t-49.5 170z" />
<glyph unicode="&#xab;" d="M281 477.5q-4 31.5 26 54.5q237 177 398 287q20 15 42.5 3t26 -34t-13.5 -40q-117 -95 -318 -250q35 -15 147.5 -63.5t174.5 -74.5q29 -12 34 -42t-14 -50t-49 -8q-69 29 -416 172q-34 14 -38 45.5zM588.5 488q-4.5 32 25.5 55q222 166 398 286q20 15 42.5 3t26 -34 t-13.5 -40q-140 -113 -317 -250q28 -12 143 -61.5t178 -75.5q29 -12 34 -42t-14 -50.5t-49 -8.5q-88 38 -415 172q-34 14 -38.5 46zM9260.5 -8698q-0.5 5 2.5 8q9 7 28.5 20.5t28.5 20.5q3 2 6.5 0t4 -5t-1.5 -5q-20 -17 -45 -35q5 -3 45 -20q8 -4 3 -13q-3 -3 -7 -2l-60 25 q-4 1 -4.5 6z" />
<glyph unicode="&#xad;" d="M276 515q-16 31 0 62.5t56 32.5q295 8 663 8q43 0 61 -33t0 -65.5t-61 -32.5q-65 0 -332.5 -4.5t-330.5 0.5q-40 1 -56 32z" />
<glyph unicode="&#xbb;" horiz-adv-x="1167" d="M-6673.5 10729.5q-3.5 5.5 1.5 8.5l49 28q-7 4 -20.5 12.5t-20.5 12.5q-9 6 -3 13q3 3 7 1l55 -30q5 -3 5.5 -8t-3.5 -7l-61 -35q-6 -1 -9.5 4.5zM337.5 329q-1.5 22 18.5 38q154 96 346 208q-50 29 -150.5 89t-150.5 88q-35 20 -28 60q5 33 32 41q17 5 35 -5 q70 -41 202 -115.5t189 -107.5q33 -17 33 -49.5t-33 -51.5q-197 -114 -430 -235q-21 -12 -41.5 3t-22 37zM644.5 300.5q-1.5 22.5 17.5 39.5q139 84 346 207q-180 109 -301 176q-27 16 -28 46t20 48t49 2q5 -3 391 -221q33 -19 33 -50.5t-33 -51.5q-296 -166 -430 -234 q-22 -13 -42.5 1.5t-22 37z" />
<glyph unicode="&#x2000;" horiz-adv-x="5402" />
<glyph unicode="&#x2001;" horiz-adv-x="10805" />
<glyph unicode="&#x2002;" horiz-adv-x="5402" />
<glyph unicode="&#x2003;" horiz-adv-x="10805" />
<glyph unicode="&#x2004;" horiz-adv-x="3601" />
<glyph unicode="&#x2005;" horiz-adv-x="2701" />
<glyph unicode="&#x2006;" horiz-adv-x="1800" />
<glyph unicode="&#x2007;" horiz-adv-x="1800" />
<glyph unicode="&#x2008;" horiz-adv-x="1350" />
<glyph unicode="&#x2009;" horiz-adv-x="2161" />
<glyph unicode="&#x200a;" horiz-adv-x="600" />
<glyph unicode="&#x2010;" d="M276 515q-16 31 0 62.5t56 32.5q295 8 663 8q43 0 61 -33t0 -65.5t-61 -32.5q-65 0 -332.5 -4.5t-330.5 0.5q-40 1 -56 32z" />
<glyph unicode="&#x2011;" d="M276 515q-16 31 0 62.5t56 32.5q295 8 663 8q43 0 61 -33t0 -65.5t-61 -32.5q-65 0 -332.5 -4.5t-330.5 0.5q-40 1 -56 32z" />
<glyph unicode="&#x2012;" d="M276 515q-16 31 0 62.5t56 32.5q295 8 663 8q43 0 61 -33t0 -65.5t-61 -32.5q-65 0 -332.5 -4.5t-330.5 0.5q-40 1 -56 32z" />
<glyph unicode="&#x2013;" horiz-adv-x="1249" d="M276 515q-16 31 0 62.5t56 32.5q295 8 827 8q43 0 61 -33t0 -65.5t-61 -32.5q-47 0 -414.5 -4.5t-412.5 0.5q-40 1 -56 32z" />
<glyph unicode="&#x2014;" horiz-adv-x="1474" d="M276 515q-16 31 0 62.5t56 32.5q295 8 1052 8q43 0 61 -33t0 -65.5t-61 -32.5q-23 0 -527 -4.5t-525 0.5q-40 1 -56 32z" />
<glyph unicode="&#x2018;" horiz-adv-x="591" d="M460.5 1307.5q4.5 25.5 13 50t32 46.5t55.5 30q15 4 24.5 -8.5t7.5 -28.5t-18 -23q-36 -13 -47 -43q30 3 47 -24q15 -25 15 -37q3 -12 -2 -27l-1 -3q-1 -4 -2.5 -7t-6 -7.5t-10.5 -7.5t-17 -6t-25 -4q-24 -3 -44 14t-21 44q-5 16 -0.5 41.5z" />
<glyph unicode="&#x2019;" horiz-adv-x="591" d="M459 1364q-4 15 0 27l1 4q1 4 1.5 7t4.5 8t9.5 9t16 8t24.5 7q23 5 45.5 -10t26.5 -40q7 -15 5 -41t-7.5 -51.5t-26 -49.5t-51.5 -36q-23 -9 -34.5 17.5t11.5 38.5q35 18 43 49q-30 -7 -51 18q-17 28 -18 35z" />
<glyph unicode="&#x201a;" horiz-adv-x="294" d="M162 53q-4 15 0 27l1 4q1 4 1.5 7t4.5 8t9.5 9t16 8t24.5 7q23 5 45.5 -9.5t26.5 -39.5q7 -15 5 -41t-7.5 -51.5t-26 -49.5t-51.5 -36q-23 -9 -34.5 17t11.5 38q35 18 43 49q-30 -7 -51 18q-17 28 -18 35z" />
<glyph unicode="&#x201c;" horiz-adv-x="788" d="M458.5 1307.5q4.5 25.5 13 50t32 46.5t55.5 30q15 4 24.5 -8.5t7.5 -28.5t-18 -23q-36 -13 -47 -43q30 3 47 -24q15 -25 15 -37q3 -12 -2 -27l-1 -3q-1 -4 -2.5 -7t-6 -7.5t-10.5 -7.5t-17 -6t-25 -4q-24 -3 -44 14t-21 44q-5 16 -0.5 41.5zM655 1266q-5 25 1 57.5t32 66 t68 44.5q15 4 24.5 -8.5t7.5 -28.5t-18 -23q-36 -13 -47 -43q30 3 47 -24q14 -23 14 -37q3 -12 -2 -27l-1 -3q-1 -4 -2.5 -7t-5.5 -7.5t-10 -7.5t-17 -6t-25 -4q-24 -3 -44.5 14t-21.5 44z" />
<glyph unicode="&#x201d;" horiz-adv-x="786" d="M459 1364q-4 15 0 27l1 4q1 4 1.5 7t4.5 8t9.5 9t16 8t24.5 7q23 5 45.5 -10t26.5 -40q7 -15 5 -41t-7.5 -51.5t-26 -49.5t-51.5 -36q-23 -9 -34.5 17.5t11.5 38.5q35 18 43 49q-30 -7 -51 18q-17 28 -18 35zM653 1364q-4 15 0 27l1 4q1 4 2 7t5 8t9.5 9t16 8t24.5 7 q23 5 45 -10t26 -40q7 -15 5 -41t-7.5 -51.5t-26 -49.5t-51.5 -36q-23 -9 -34 17.5t12 38.5q35 18 43 49q-30 -7 -51 18q-18 30 -19 35z" />
<glyph unicode="&#x201e;" horiz-adv-x="290" d="M158 53q-4 15 0 27l1 4q1 4 1.5 7t4.5 8t9.5 9t16 8t24.5 7q23 5 45.5 -9.5t26.5 -39.5q7 -15 5 -41t-7.5 -51.5t-26 -49.5t-51.5 -36q-23 -9 -34.5 17t11.5 38q35 18 43 49q-30 -7 -51 18q-17 28 -18 35z" />
<glyph unicode="&#x2022;" horiz-adv-x="673" d="M303 522q0 47 24 90.5t70 63.5q5 2 14 6t34 12.5t48 13.5t50.5 5t46.5 -8q59 -32 76 -97q31 -130 -50 -200q-28 -43 -82.5 -61t-97.5 3q-61 23 -97 66.5t-36 105.5z" />
<glyph unicode="&#x202f;" horiz-adv-x="2161" />
<glyph unicode="&#x2039;" horiz-adv-x="798" d="M281 477.5q-4 31.5 26 54.5q237 177 398 287q20 15 42.5 3t26 -34t-13.5 -40q-117 -95 -318 -250q35 -15 147.5 -63.5t174.5 -74.5q29 -12 34 -42t-14 -50t-49 -8q-69 29 -416 172q-34 14 -38 45.5z" />
<glyph unicode="&#x203a;" horiz-adv-x="839" d="M318.5 335q4.5 17 21.5 25q296 135 369 166q-33 24 -129.5 97.5t-151.5 113.5q-25 18 -22 49t25 43.5t50 -2.5q97 -73 363 -268q30 -22 26 -53.5t-39 -46.5q-323 -134 -454 -183q-17 -6 -33 2.5t-23 24t-2.5 32.5z" />
<glyph unicode="&#x205f;" horiz-adv-x="2701" />
<glyph unicode="&#x2122;" horiz-adv-x="2365" d="M5 1275.5q-14 52.5 20 86.5q25 25 53.5 3.5t11.5 -52.5q-12 -22 49 -9l45 13q15 6 46 19.5t46 19.5q98 41 164 65q213 84 334 105q73 13 117.5 19t110 5t116.5 -16q57 -19 86 -71.5t8 -108.5q-9 -28 -37.5 -33t-48 13t-8.5 46q4 12 -5 20.5t-28.5 12t-40 5t-44 0.5 t-37 -1.5t-21.5 -1.5q-101 -6 -205 -31q-41 -10 -145 -41q-15 -56 -60.5 -241t-79 -306t-73.5 -237q-12 -34 -46 -151t-59 -177q-59 -136 -161 -256q-17 -22 -42.5 -13.5t-33 32t9.5 47.5q34 37 62 87.5t44 91t37 101.5q1 3 1.5 5t1.5 5t2 5.5t2 5.5q13 37 26.5 85.5 t19 71.5t21 92t17.5 77q13 62 29 123.5t39.5 138t36 117t44 137t39.5 121.5l-92 -31q-17 -6 -47.5 -17.5t-52.5 -19.5t-52.5 -16.5t-55 -13t-52.5 -4t-51 6.5q-47 13 -61 65.5zM360 471q9 25 35.5 29.5t44 -12t6.5 -42.5q-47 -116 -55 -168q-9 -62 8 -108q16 -43 47 -70.5 t68.5 -28.5t75.5 35q33 33 63.5 71t63 87.5t51 79.5t55 93.5t47.5 82.5q259 441 398 934q7 26 26 39t39.5 11.5t40.5 -15t29 -35.5q155 -379 166 -723q6 -134 -13 -278q259 474 347 1001q6 33 33.5 43t56.5 -3t39 -40q24 -68 55 -229q23 -110 20 -236q-8 -330 -32 -483 q-2 -17 -12 -74t-17 -104t-14 -102t-6.5 -93.5t8.5 -52.5q18 -31 51 -37.5t65 7t54 38.5q23 24 41.5 57t26.5 55t24 68q11 32 42.5 38t53.5 -15t10 -53q-19 -50 -35 -87t-45 -84t-59.5 -77t-74.5 -50.5t-95 -19.5q-53 1 -94 20t-65 50.5t-38.5 73t-16 87t2.5 93.5 q3 24 42 251.5t38 348.5q0 98 -10 225q-161 -577 -506 -1067q-22 -32 -60 -34.5t-63 24t-12 67.5q87 275 95.5 572t-67.5 581q-181 -544 -495 -968q-8 -10 -28 -38.5t-32 -44t-34 -43.5t-38 -44.5t-40 -39t-44 -34.5t-45.5 -23t-49 -12.5t-50.5 3.5t-53 20q-221 124 -70 483 z" />
<glyph unicode="&#x25fc;" horiz-adv-x="1034" d="M0 0v1034h1034v-1034h-1034z" />
</font>
</defs>
</svg>
